<?xml version="1.0" encoding="UTF-8"?><svg id="Layer_2" xmlns="http://www.w3.org/2000/svg" viewBox="0 0 766.33 215.95"><defs><style>.cls-1{fill:#00ffd0;}</style></defs><g id="Layer_1-2"><polygon class="cls-1" points="54.95 0 54.96 0 109.44 0 109.91 0 164.39 0 164.39 0 218.2 0 219.35 0 273.15 0 273.16 0 327.48 0 328.11 0 382.44 0 382.44 0 437.02 0 437.4 0 491.98 0 491.98 0 546.57 0 546.94 0 601.52 0 601.52 0 656.42 0 656.48 0 711.37 0 711.38 0 766.33 0 766.33 54.96 711.38 54.96 711.38 109.22 656.48 109.22 656.48 162.59 601.52 162.59 601.52 215.95 546.57 215.95 546.57 162.59 491.98 162.59 491.98 162.59 437.02 162.59 437.02 109.22 382.44 109.22 382.44 109.22 327.48 109.22 327.48 54.96 273.16 54.96 273.15 54.96 219.35 54.96 218.2 54.96 164.39 54.96 164.39 108.24 109.91 108.24 109.91 108.32 54.95 108.32 54.95 54.96 0 54.96 0 0 54.95 0"/></g></svg>