<?xml version="1.0" encoding="UTF-8"?><svg id="Layer_2" xmlns="http://www.w3.org/2000/svg" viewBox="0 0 766.33 215.95"><defs><style>.cls-1{fill:#1a1a1a;}</style></defs><g id="Layer_1-2"><polygon class="cls-1" points="711.38 0 711.37 0 656.9 0 656.42 0 601.94 0 601.94 0 548.13 0 546.98 0 493.18 0 493.17 0 438.85 0 438.22 0 383.9 0 383.89 0 329.31 0 328.94 0 274.35 0 274.35 0 219.77 0 219.4 0 164.81 0 164.81 0 109.91 0 109.85 0 54.96 0 54.95 0 0 0 0 54.96 54.95 54.96 54.95 109.22 109.85 109.22 109.85 162.59 164.81 162.59 164.81 215.95 219.77 215.95 219.77 162.59 274.35 162.59 274.35 162.59 329.31 162.59 329.31 109.22 383.89 109.22 383.9 109.22 438.85 109.22 438.85 54.96 493.17 54.96 493.18 54.96 546.98 54.96 548.13 54.96 601.94 54.96 601.94 108.24 656.42 108.24 656.42 108.32 711.38 108.32 711.38 54.96 766.33 54.96 766.33 0 711.38 0"/></g></svg>