<?xml version="1.0" standalone="no"?>
<!DOCTYPE svg PUBLIC "-//W3C//DTD SVG 1.1//EN" "http://www.w3.org/Graphics/SVG/1.1/DTD/svg11.dtd" >
<svg xmlns="http://www.w3.org/2000/svg" xmlns:xlink="http://www.w3.org/1999/xlink" version="1.1">
<metadata>
Created by FontForge 20201107 at Thu Aug 11 20:54:43 2022
 By Unknown
Copyright Copyright 2017 by Deni Anggara. All rights reserved.
</metadata>
<defs>
<font id="Mona-Sans-Bold" horiz-adv-x="633" >
  <font-face 
    font-family="Mona-Sans"
    font-weight="700"
    font-stretch="normal"
    units-per-em="1000"
    panose-1="0 0 0 0 0 0 0 0 0 0"
    ascent="800"
    descent="-200"
    x-height="536"
    cap-height="729"
    bbox="-223 -248 1178 1009"
    underline-thickness="50"
    underline-position="-125"
    stemh="140"
    stemv="166"
    unicode-range="U+000D-FB02"
  />
<missing-glyph horiz-adv-x="865" 
d="M432 738c213 0 383 -171 383 -382c0 -170 -108 -315 -260 -364c-16 -4 -27 3 -27 18v105c0 35 -13 60 -26 71c86 10 175 40 175 190c0 40 -15 75 -40 101c4 10 18 49 -4 102c0 0 -31 11 -104 -40c-32 10 -64 14 -97 14c-32 0 -64 -4 -96 -14c-73 51 -104 40 -104 40
c-22 -53 -8 -92 -4 -102c-25 -26 -40 -61 -40 -101c0 -148 89 -180 175 -190c-11 -10 -22 -28 -26 -52c-21 -9 -77 -27 -109 31c0 0 -22 38 -60 41c0 0 -36 0 -1 -24c0 0 24 -11 40 -56c0 0 24 -68 130 -46v-70c0 -15 -11 -22 -25 -18c-154 49 -262 194 -262 364
c0 211 170 382 382 382zM196 189c-1 -3 -5 -3 -8 -2c-3 2 -4 3 -3 5c0 2 3 4 6 0c4 0 5 -2 5 -3zM209 171c-2 -3 -4 0 -7 1c-3 3 -3 7 -2 8c3 2 6 2 9 -1c1 -3 2 -7 0 -8zM227 148c-3 -2 -9 0 -11 3s-2 9 0 10s8 0 11 -3c1 -4 1 -8 0 -10zM246 127c-2 -2 -7 -1 -9 2
c-3 3 -5 7 -3 10c3 2 7 1 10 -2c2 -3 4 -8 2 -10zM274 115c-1 -3 -5 -4 -10 -3c-4 2 -5 4 -5 8c1 3 4 5 10 3c2 -1 5 -5 5 -8zM334 118c2 -3 -3 -6 -7 -7c-4 0 -8 1 -8 4c-2 3 1 7 7 7c4 1 8 -2 8 -4zM305 114c0 -3 -3 -7 -7 -9c-4 0 -7 6 -7 9c0 2 3 4 7 4s7 -2 7 -4z" />
    <glyph glyph-name="fl" unicode="fl" horiz-adv-x="643" 
d="M98 0v418h-88v118h88v57c0 88 57 136 156 136h109v-98h-66c-41 0 -52 -18 -52 -45v-50h188v193h147v-729h-147v418h-188v-418h-147z" />
    <glyph glyph-name="f_f.liga" unicode="ff" horiz-adv-x="685" 
d="M98 0v418h-88v118h88v57c0 88 57 136 156 136h109v-98h-66c-41 0 -52 -18 -52 -45v-50h174v57c0 88 58 136 157 136h108v-98h-65c-41 0 -53 -18 -53 -45v-50h109v-118h-109v-418h-147v418h-174v-418h-147z" />
    <glyph glyph-name="t_t.liga" unicode="tt" horiz-adv-x="719" 
d="M240 0c-109 0 -137 50 -137 131v287h-96v118h96v146l146 14v-160h188v146l146 14v-160h108v-118h-108v-259c0 -32 15 -40 43 -40h65v-119h-117c-109 0 -137 50 -137 131v287h-188v-259c0 -32 15 -40 43 -40h65v-119h-117z" />
    <glyph glyph-name=".notdef" horiz-adv-x="865" 
d="M432 738c213 0 383 -171 383 -382c0 -170 -108 -315 -260 -364c-16 -4 -27 3 -27 18v105c0 35 -13 60 -26 71c86 10 175 40 175 190c0 40 -15 75 -40 101c4 10 18 49 -4 102c0 0 -31 11 -104 -40c-32 10 -64 14 -97 14c-32 0 -64 -4 -96 -14c-73 51 -104 40 -104 40
c-22 -53 -8 -92 -4 -102c-25 -26 -40 -61 -40 -101c0 -148 89 -180 175 -190c-11 -10 -22 -28 -26 -52c-21 -9 -77 -27 -109 31c0 0 -22 38 -60 41c0 0 -36 0 -1 -24c0 0 24 -11 40 -56c0 0 24 -68 130 -46v-70c0 -15 -11 -22 -25 -18c-154 49 -262 194 -262 364
c0 211 170 382 382 382zM196 189c-1 -3 -5 -3 -8 -2c-3 2 -4 3 -3 5c0 2 3 4 6 0c4 0 5 -2 5 -3zM209 171c-2 -3 -4 0 -7 1c-3 3 -3 7 -2 8c3 2 6 2 9 -1c1 -3 2 -7 0 -8zM227 148c-3 -2 -9 0 -11 3s-2 9 0 10s8 0 11 -3c1 -4 1 -8 0 -10zM246 127c-2 -2 -7 -1 -9 2
c-3 3 -5 7 -3 10c3 2 7 1 10 -2c2 -3 4 -8 2 -10zM274 115c-1 -3 -5 -4 -10 -3c-4 2 -5 4 -5 8c1 3 4 5 10 3c2 -1 5 -5 5 -8zM334 118c2 -3 -3 -6 -7 -7c-4 0 -8 1 -8 4c-2 3 1 7 7 7c4 1 8 -2 8 -4zM305 114c0 -3 -3 -7 -7 -9c-4 0 -7 6 -7 9c0 2 3 4 7 4s7 -2 7 -4z" />
    <glyph glyph-name="A" unicode="A" horiz-adv-x="708" 
d="M1 0l243 729h220l243 -729h-162l-49 150h-284l-49 -150h-162zM248 269h212l-62 186l-41 133h-6l-41 -133z" />
    <glyph glyph-name="Aacute" unicode="&#xc1;" horiz-adv-x="708" 
d="M298 791l56 145h147l-92 -145h-111zM1 0l243 729h220l243 -729h-162l-49 150h-284l-49 -150h-162zM248 269h212l-62 186l-41 133h-6l-41 -133z" />
    <glyph glyph-name="Acircumflex" unicode="&#xc2;" horiz-adv-x="708" 
d="M171 791l114 145h139l114 -145h-125l-59 77l-58 -77h-125zM1 0l243 729h220l243 -729h-162l-49 150h-284l-49 -150h-162zM248 269h212l-62 186l-41 133h-6l-41 -133z" />
    <glyph glyph-name="Adieresis" unicode="&#xc4;" horiz-adv-x="708" 
d="M189 805v131h126v-131h-126zM393 805v131h127v-131h-127zM1 0l243 729h220l243 -729h-162l-49 150h-284l-49 -150h-162zM248 269h212l-62 186l-41 133h-6l-41 -133z" />
    <glyph glyph-name="Agrave" unicode="&#xc0;" horiz-adv-x="708" 
d="M300 791l-92 145h146l57 -145h-111zM1 0l243 729h220l243 -729h-162l-49 150h-284l-49 -150h-162zM248 269h212l-62 186l-41 133h-6l-41 -133z" />
    <glyph glyph-name="Aring" unicode="&#xc5;" horiz-adv-x="708" 
d="M355 786c-72 0 -119 45 -119 111c0 67 47 112 119 112c71 0 118 -45 118 -112c0 -66 -47 -111 -118 -111zM355 853c26 0 44 18 44 44c0 27 -18 45 -44 45c-27 0 -44 -18 -44 -45c0 -26 17 -44 44 -44zM1 0l243 729h220l243 -729h-162l-49 150h-284l-49 -150h-162z
M248 269h212l-62 186l-41 133h-6l-41 -133z" />
    <glyph glyph-name="Atilde" unicode="&#xc3;" horiz-adv-x="708" 
d="M416 795c-54 1 -78 36 -123 36c-28 0 -45 -16 -62 -36l-58 39c32 77 79 99 121 98c53 0 77 -34 124 -35c35 0 50 23 60 37l59 -37c-27 -74 -74 -103 -121 -102zM1 0l243 729h220l243 -729h-162l-49 150h-284l-49 -150h-162zM248 269h212l-62 186l-41 133h-6l-41 -133z
" />
    <glyph glyph-name="AE" unicode="&#xc6;" horiz-adv-x="964" 
d="M1 0l243 729h671v-133h-375v-163h325v-125h-325v-175h377v-133h-528v150h-177l-49 -150h-162zM248 269h141v319h-38l-41 -133z" />
    <glyph glyph-name="B" unicode="B" horiz-adv-x="714" 
d="M79 0v729h358c148 0 223 -75 223 -187c0 -75 -39 -139 -110 -159v-8c84 -17 130 -84 130 -166c0 -138 -96 -209 -262 -209h-339zM230 430h170c72 0 103 36 103 90c0 60 -43 90 -108 90h-165v-180zM230 120h171c83 0 120 39 120 98c0 66 -44 97 -114 97h-177v-195z" />
    <glyph glyph-name="C" unicode="C" horiz-adv-x="775" 
d="M401 -9c-219 0 -366 137 -366 374c0 236 147 373 366 373c187 0 320 -104 340 -260h-158c-18 75 -86 127 -182 127c-125 0 -205 -80 -205 -240c0 -162 80 -241 205 -241c93 0 166 51 182 128h158c-18 -157 -156 -261 -340 -261z" />
    <glyph glyph-name="Ccedilla" unicode="&#xc7;" horiz-adv-x="775" 
d="M375 -248c-78 0 -137 43 -135 113h91c1 -19 12 -38 38 -38c25 0 39 17 39 42c0 27 -18 40 -47 40h-22v86c-184 24 -304 156 -304 370c0 236 147 373 366 373c187 0 320 -104 340 -260h-158c-18 75 -86 127 -182 127c-125 0 -205 -80 -205 -240c0 -162 80 -241 205 -241
c93 0 166 51 182 128h158c-17 -152 -147 -254 -321 -261v-35c54 -6 87 -42 87 -94c0 -69 -56 -110 -132 -110z" />
    <glyph glyph-name="D" unicode="D" horiz-adv-x="761" 
d="M79 0v729h310c218 0 336 -147 336 -365s-119 -364 -336 -364h-310zM235 133h129c117 0 202 58 202 234c0 172 -83 230 -202 230h-129v-464z" />
    <glyph glyph-name="Eth" unicode="&#xd0;" horiz-adv-x="761" 
d="M79 0v310h-71v109h71v310h310c218 0 336 -147 336 -365s-119 -364 -336 -364h-310zM235 133h129c117 0 202 58 202 234c0 172 -83 230 -202 230h-129v-178h127v-109h-127v-177z" />
    <glyph glyph-name="E" unicode="E" horiz-adv-x="659" 
d="M79 0v729h530v-133h-374v-163h325v-125h-325v-175h376v-133h-532z" />
    <glyph glyph-name="Eacute" unicode="&#xc9;" horiz-adv-x="659" 
d="M278 791l56 145h147l-92 -145h-111zM79 0v729h530v-133h-374v-163h325v-125h-325v-175h376v-133h-532z" />
    <glyph glyph-name="Ecircumflex" unicode="&#xca;" horiz-adv-x="659" 
d="M151 791l114 145h139l114 -145h-125l-59 77l-58 -77h-125zM79 0v729h530v-133h-374v-163h325v-125h-325v-175h376v-133h-532z" />
    <glyph glyph-name="Edieresis" unicode="&#xcb;" horiz-adv-x="659" 
d="M169 805v131h126v-131h-126zM373 805v131h127v-131h-127zM79 0v729h530v-133h-374v-163h325v-125h-325v-175h376v-133h-532z" />
    <glyph glyph-name="Egrave" unicode="&#xc8;" horiz-adv-x="659" 
d="M279 791l-92 145h146l57 -145h-111zM79 0v729h530v-133h-374v-163h325v-125h-325v-175h376v-133h-532z" />
    <glyph glyph-name="F" unicode="F" 
d="M79 0v729h529v-133h-373v-183h333v-127h-333v-286h-156z" />
    <glyph glyph-name="G" unicode="G" horiz-adv-x="790" 
d="M396 -9c-226 0 -361 150 -361 374c0 236 147 373 368 373c194 0 321 -102 338 -254h-160c-17 76 -84 121 -178 121c-126 0 -208 -79 -208 -240c0 -162 78 -244 204 -244c113 0 187 60 197 157h-200v111h358v-70c0 -199 -142 -328 -358 -328z" />
    <glyph glyph-name="H" unicode="H" horiz-adv-x="812" 
d="M79 0v729h156v-293h343v293h156v-729h-156v303h-343v-303h-156z" />
    <glyph glyph-name="I" unicode="I" horiz-adv-x="313" 
d="M79 0v729h156v-729h-156z" />
    <glyph glyph-name="Iacute" unicode="&#xcd;" horiz-adv-x="313" 
d="M101 791l56 145h147l-92 -145h-111zM79 0v729h156v-729h-156z" />
    <glyph glyph-name="Icircumflex" unicode="&#xce;" horiz-adv-x="313" 
d="M-26 791l114 145h139l114 -145h-125l-59 77l-58 -77h-125zM79 0v729h156v-729h-156z" />
    <glyph glyph-name="Idieresis" unicode="&#xcf;" horiz-adv-x="313" 
d="M-8 805v131h126v-131h-126zM196 805v131h127v-131h-127zM79 0v729h156v-729h-156z" />
    <glyph glyph-name="Igrave" unicode="&#xcc;" horiz-adv-x="313" 
d="M102 791l-92 145h146l57 -145h-111zM79 0v729h156v-729h-156z" />
    <glyph glyph-name="J" unicode="J" horiz-adv-x="426" 
d="M121 -7c-41 0 -82 8 -106 19v125c19 -10 43 -16 73 -16c71 0 104 31 104 99v509h155v-521c0 -153 -89 -215 -226 -215z" />
    <glyph glyph-name="K" unicode="K" horiz-adv-x="729" 
d="M79 0v729h156v-345l291 345h186l-269 -303l273 -426h-184l-196 314l-101 -113v-201h-156z" />
    <glyph glyph-name="L" unicode="L" horiz-adv-x="568" 
d="M79 0v729h156v-591h324v-138h-480z" />
    <glyph glyph-name="M" unicode="M" horiz-adv-x="934" 
d="M79 0v729h236l150 -477h6l148 477h237v-729h-151v288l2 278h-7l-171 -566h-122l-171 566h-8l3 -280v-286h-152z" />
    <glyph glyph-name="N" unicode="N" horiz-adv-x="802" 
d="M79 0v729h186l307 -515h7l-6 233v282h150v-729h-176l-307 504h-7l4 -211v-293h-158z" />
    <glyph glyph-name="Ntilde" unicode="&#xd1;" horiz-adv-x="802" 
d="M462 795c-54 1 -78 36 -123 36c-28 0 -45 -16 -62 -36l-58 39c32 77 79 99 121 98c53 0 77 -34 124 -35c35 0 50 23 60 37l59 -37c-27 -74 -74 -103 -121 -102zM79 0v729h186l307 -515h7l-6 233v282h150v-729h-176l-307 504h-7l4 -211v-293h-158z" />
    <glyph glyph-name="O" unicode="O" horiz-adv-x="803" 
d="M401 -9c-220 0 -366 137 -366 374s146 373 366 373c221 0 366 -137 366 -373c0 -238 -146 -374 -366 -374zM401 124c126 0 206 81 206 241s-81 240 -206 240s-205 -80 -205 -240c0 -161 80 -241 205 -241z" />
    <glyph glyph-name="Oacute" unicode="&#xd3;" horiz-adv-x="803" 
d="M346 791l56 145h147l-92 -145h-111zM401 -9c-220 0 -366 137 -366 374s146 373 366 373c221 0 366 -137 366 -373c0 -238 -146 -374 -366 -374zM401 124c126 0 206 81 206 241s-81 240 -206 240s-205 -80 -205 -240c0 -161 80 -241 205 -241z" />
    <glyph glyph-name="Ocircumflex" unicode="&#xd4;" horiz-adv-x="803" 
d="M218 791l114 145h139l114 -145h-125l-59 77l-58 -77h-125zM401 -9c-220 0 -366 137 -366 374s146 373 366 373c221 0 366 -137 366 -373c0 -238 -146 -374 -366 -374zM401 124c126 0 206 81 206 241s-81 240 -206 240s-205 -80 -205 -240c0 -161 80 -241 205 -241z" />
    <glyph glyph-name="Odieresis" unicode="&#xd6;" horiz-adv-x="803" 
d="M236 805v131h126v-131h-126zM440 805v131h127v-131h-127zM401 -9c-220 0 -366 137 -366 374s146 373 366 373c221 0 366 -137 366 -373c0 -238 -146 -374 -366 -374zM401 124c126 0 206 81 206 241s-81 240 -206 240s-205 -80 -205 -240c0 -161 80 -241 205 -241z" />
    <glyph glyph-name="Ograve" unicode="&#xd2;" horiz-adv-x="803" 
d="M347 791l-92 145h146l57 -145h-111zM401 -9c-220 0 -366 137 -366 374s146 373 366 373c221 0 366 -137 366 -373c0 -238 -146 -374 -366 -374zM401 124c126 0 206 81 206 241s-81 240 -206 240s-205 -80 -205 -240c0 -161 80 -241 205 -241z" />
    <glyph glyph-name="Oslash" unicode="&#xd8;" horiz-adv-x="803" 
d="M48 -40l92 125c-67 64 -105 159 -105 280c0 237 146 373 366 373c72 0 136 -15 189 -42l55 74h110l-92 -126c66 -64 104 -158 104 -279c0 -238 -146 -374 -366 -374c-71 0 -134 14 -187 41l-53 -72h-113zM196 365c0 -65 13 -116 36 -155l274 371c-30 16 -65 24 -105 24
c-125 0 -205 -80 -205 -240zM401 124c126 0 206 81 206 241c0 64 -13 115 -36 153l-273 -371c30 -15 64 -23 103 -23z" />
    <glyph glyph-name="Otilde" unicode="&#xd5;" horiz-adv-x="803" 
d="M463 795c-54 1 -78 36 -123 36c-28 0 -45 -16 -62 -36l-58 39c32 77 79 99 121 98c53 0 77 -34 124 -35c35 0 50 23 60 37l59 -37c-27 -74 -74 -103 -121 -102zM401 -9c-220 0 -366 137 -366 374s146 373 366 373c221 0 366 -137 366 -373c0 -238 -146 -374 -366 -374z
M401 124c126 0 206 81 206 241s-81 240 -206 240s-205 -80 -205 -240c0 -161 80 -241 205 -241z" />
    <glyph glyph-name="OE" unicode="&#x152;" horiz-adv-x="1120" 
d="M371 0c-217 0 -336 147 -336 365s120 364 336 364h699v-133h-374v-163h325v-125h-325v-175h377v-133h-702zM397 132h143v464h-143c-117 0 -202 -58 -202 -234c0 -172 83 -230 202 -230z" />
    <glyph glyph-name="P" unicode="P" horiz-adv-x="675" 
d="M79 0v729h312c158 0 261 -87 261 -239c0 -144 -96 -242 -261 -242l-156 1v-249h-156zM365 597h-130v-227l130 -1c69 0 129 28 129 115c0 86 -60 113 -129 113z" />
    <glyph glyph-name="Thorn" unicode="&#xde;" horiz-adv-x="663" 
d="M79 0v729h156v-124h144c158 0 260 -87 260 -239c0 -144 -96 -242 -261 -242l-143 1v-125h-156zM352 473h-117v-227l117 -1c69 0 129 28 129 115c0 86 -60 113 -129 113z" />
    <glyph glyph-name="Q" unicode="Q" horiz-adv-x="803" 
d="M679 -174l-289 165c-214 5 -355 141 -355 374c0 237 146 373 366 373c221 0 366 -137 366 -373c0 -181 -88 -306 -239 -349l176 -55v-135h-25zM401 124c126 0 206 81 206 241s-81 240 -206 240s-205 -80 -205 -240c0 -161 80 -241 205 -241z" />
    <glyph glyph-name="R" unicode="R" horiz-adv-x="733" 
d="M79 0v729h360c170 0 254 -75 254 -209c0 -87 -48 -155 -126 -174v-7c73 -14 108 -59 108 -141v-114c0 -27 0 -56 13 -84h-157c-9 18 -12 48 -12 84v87c0 62 -23 97 -111 97h-173v-268h-156zM235 392h181c85 0 118 45 118 107c0 73 -48 101 -118 101h-181v-208z" />
    <glyph glyph-name="S" unicode="S" horiz-adv-x="673" 
d="M335 -9c-197 0 -301 96 -301 238h158c2 -72 45 -119 149 -119c80 0 132 29 132 87c0 70 -38 85 -170 107c-168 26 -254 85 -254 212c0 137 108 222 285 222c171 0 278 -87 279 -217h-157c-3 71 -58 99 -127 99c-73 0 -118 -32 -118 -84c0 -67 50 -76 176 -97
c122 -19 248 -51 248 -227c0 -131 -101 -221 -300 -221z" />
    <glyph glyph-name="uni1E9E" unicode="&#x1e9e;" horiz-adv-x="718" 
d="M79 0v729h563v-145l-131 -169v-7c108 -8 173 -85 173 -193c0 -136 -100 -215 -257 -215h-130v126h103c87 0 122 45 122 107c0 72 -43 107 -125 107h-38v73l138 186h-262v-599h-156z" />
    <glyph glyph-name="T" unicode="T" horiz-adv-x="607" 
d="M224 0v594h-215v135h590v-135h-220v-594h-155z" />
    <glyph glyph-name="U" unicode="U" horiz-adv-x="767" 
d="M383 -9c-197 0 -310 112 -310 286v452h155v-451c0 -99 58 -149 156 -149c102 0 156 55 156 149v451h155v-452c0 -180 -121 -286 -312 -286z" />
    <glyph glyph-name="Uacute" unicode="&#xda;" horiz-adv-x="767" 
d="M328 791l56 145h147l-92 -145h-111zM383 -9c-197 0 -310 112 -310 286v452h155v-451c0 -99 58 -149 156 -149c102 0 156 55 156 149v451h155v-452c0 -180 -121 -286 -312 -286z" />
    <glyph glyph-name="Ucircumflex" unicode="&#xdb;" horiz-adv-x="767" 
d="M201 791l114 145h139l114 -145h-125l-59 77l-58 -77h-125zM383 -9c-197 0 -310 112 -310 286v452h155v-451c0 -99 58 -149 156 -149c102 0 156 55 156 149v451h155v-452c0 -180 -121 -286 -312 -286z" />
    <glyph glyph-name="Udieresis" unicode="&#xdc;" horiz-adv-x="767" 
d="M219 805v131h126v-131h-126zM423 805v131h127v-131h-127zM383 -9c-197 0 -310 112 -310 286v452h155v-451c0 -99 58 -149 156 -149c102 0 156 55 156 149v451h155v-452c0 -180 -121 -286 -312 -286z" />
    <glyph glyph-name="Ugrave" unicode="&#xd9;" horiz-adv-x="767" 
d="M329 791l-92 145h146l57 -145h-111zM383 -9c-197 0 -310 112 -310 286v452h155v-451c0 -99 58 -149 156 -149c102 0 156 55 156 149v451h155v-452c0 -180 -121 -286 -312 -286z" />
    <glyph glyph-name="V" unicode="V" horiz-adv-x="727" 
d="M259 0l-255 729h174l142 -450l40 -131h7l39 131l143 450h174l-254 -729h-210z" />
    <glyph glyph-name="W" unicode="W" horiz-adv-x="991" 
d="M162 0l-155 729h172l67 -366l32 -193h8l115 559h191l118 -561h7l30 193l65 368h172l-155 -729h-214l-115 519h-7l-118 -519h-213z" />
    <glyph glyph-name="Wacute" unicode="&#x1e82;" horiz-adv-x="991" 
d="M440 791l56 145h147l-92 -145h-111zM162 0l-155 729h172l67 -366l32 -193h8l115 559h191l118 -561h7l30 193l65 368h172l-155 -729h-214l-115 519h-7l-118 -519h-213z" />
    <glyph glyph-name="Wcircumflex" unicode="&#x174;" horiz-adv-x="991" 
d="M313 791l114 145h139l114 -145h-125l-59 77l-58 -77h-125zM162 0l-155 729h172l67 -366l32 -193h8l115 559h191l118 -561h7l30 193l65 368h172l-155 -729h-214l-115 519h-7l-118 -519h-213z" />
    <glyph glyph-name="Wdieresis" unicode="&#x1e84;" horiz-adv-x="991" 
d="M331 805v131h126v-131h-126zM535 805v131h127v-131h-127zM162 0l-155 729h172l67 -366l32 -193h8l115 559h191l118 -561h7l30 193l65 368h172l-155 -729h-214l-115 519h-7l-118 -519h-213z" />
    <glyph glyph-name="Wgrave" unicode="&#x1e80;" horiz-adv-x="991" 
d="M441 791l-92 145h146l57 -145h-111zM162 0l-155 729h172l67 -366l32 -193h8l115 559h191l118 -561h7l30 193l65 368h172l-155 -729h-214l-115 519h-7l-118 -519h-213z" />
    <glyph glyph-name="X" unicode="X" horiz-adv-x="736" 
d="M-1 0l266 390l-237 339h183l153 -238h4l153 238h183l-234 -338l266 -391h-185l-183 279h-4l-184 -279h-181z" />
    <glyph glyph-name="Y" unicode="Y" horiz-adv-x="701" 
d="M271 0v278l-270 451h178l167 -299h7l169 299h177l-272 -451v-278h-156z" />
    <glyph glyph-name="Yacute" unicode="&#xdd;" horiz-adv-x="701" 
d="M294 791l56 145h147l-92 -145h-111zM271 0v278l-270 451h178l167 -299h7l169 299h177l-272 -451v-278h-156z" />
    <glyph glyph-name="Ycircumflex" unicode="&#x176;" horiz-adv-x="701" 
d="M167 791l114 145h139l114 -145h-125l-59 77l-58 -77h-125zM271 0v278l-270 451h178l167 -299h7l169 299h177l-272 -451v-278h-156z" />
    <glyph glyph-name="Ydieresis" unicode="&#x178;" horiz-adv-x="701" 
d="M185 805v131h126v-131h-126zM389 805v131h127v-131h-127zM271 0v278l-270 451h178l167 -299h7l169 299h177l-272 -451v-278h-156z" />
    <glyph glyph-name="Ygrave" unicode="&#x1ef2;" horiz-adv-x="701" 
d="M295 791l-92 145h146l57 -145h-111zM271 0v278l-270 451h178l167 -299h7l169 299h177l-272 -451v-278h-156z" />
    <glyph glyph-name="Z" unicode="Z" horiz-adv-x="647" 
d="M38 0v132l369 463h-352v134h544v-133l-371 -463h381v-133h-571z" />
    <glyph glyph-name="G.ss01" horiz-adv-x="830" 
d="M377 -9c-201 0 -342 139 -342 369c0 240 149 377 375 377c191 0 329 -96 345 -249h-159c-18 71 -88 116 -185 116c-146 0 -215 -97 -215 -242c0 -162 82 -243 209 -243c119 0 194 65 194 165v2h-209v113h373v-399h-124l-7 115h-7c-28 -75 -125 -124 -248 -124z" />
    <glyph glyph-name="a" unicode="a" 
d="M245 -9c-128 0 -214 93 -214 277c0 185 86 278 214 278c83 0 145 -41 170 -103h8l6 93h141v-536h-147v94h-8c-25 -62 -87 -103 -170 -103zM301 110c82 0 120 64 120 133v51c0 69 -38 133 -120 133c-72 0 -120 -50 -120 -159c0 -108 48 -158 120 -158z" />
    <glyph glyph-name="aacute" unicode="&#xe1;" 
d="M258 598l56 145h147l-92 -145h-111zM245 -9c-128 0 -214 93 -214 277c0 185 86 278 214 278c83 0 145 -41 170 -103h8l6 93h141v-536h-147v94h-8c-25 -62 -87 -103 -170 -103zM301 110c82 0 120 64 120 133v51c0 69 -38 133 -120 133c-72 0 -120 -50 -120 -159
c0 -108 48 -158 120 -158z" />
    <glyph glyph-name="acircumflex" unicode="&#xe2;" 
d="M131 598l114 145h139l114 -145h-125l-59 77l-58 -77h-125zM245 -9c-128 0 -214 93 -214 277c0 185 86 278 214 278c83 0 145 -41 170 -103h8l6 93h141v-536h-147v94h-8c-25 -62 -87 -103 -170 -103zM301 110c82 0 120 64 120 133v51c0 69 -38 133 -120 133
c-72 0 -120 -50 -120 -159c0 -108 48 -158 120 -158z" />
    <glyph glyph-name="adieresis" unicode="&#xe4;" 
d="M149 612v131h126v-131h-126zM353 612v131h127v-131h-127zM245 -9c-128 0 -214 93 -214 277c0 185 86 278 214 278c83 0 145 -41 170 -103h8l6 93h141v-536h-147v94h-8c-25 -62 -87 -103 -170 -103zM301 110c82 0 120 64 120 133v51c0 69 -38 133 -120 133
c-72 0 -120 -50 -120 -159c0 -108 48 -158 120 -158z" />
    <glyph glyph-name="agrave" unicode="&#xe0;" 
d="M260 598l-92 145h146l57 -145h-111zM245 -9c-128 0 -214 93 -214 277c0 185 86 278 214 278c83 0 145 -41 170 -103h8l6 93h141v-536h-147v94h-8c-25 -62 -87 -103 -170 -103zM301 110c82 0 120 64 120 133v51c0 69 -38 133 -120 133c-72 0 -120 -50 -120 -159
c0 -108 48 -158 120 -158z" />
    <glyph glyph-name="aring" unicode="&#xe5;" 
d="M316 593c-72 0 -119 45 -119 111c0 67 47 112 119 112c71 0 118 -45 118 -112c0 -66 -47 -111 -118 -111zM316 660c26 0 44 18 44 44c0 27 -18 45 -44 45c-27 0 -44 -18 -44 -45c0 -26 17 -44 44 -44zM245 -9c-128 0 -214 93 -214 277c0 185 86 278 214 278
c83 0 145 -41 170 -103h8l6 93h141v-536h-147v94h-8c-25 -62 -87 -103 -170 -103zM301 110c82 0 120 64 120 133v51c0 69 -38 133 -120 133c-72 0 -120 -50 -120 -159c0 -108 48 -158 120 -158z" />
    <glyph glyph-name="atilde" unicode="&#xe3;" 
d="M376 602c-54 1 -78 36 -123 36c-28 0 -45 -16 -62 -36l-58 39c32 77 79 99 121 98c53 0 77 -34 124 -35c35 0 50 23 60 37l59 -37c-27 -74 -74 -103 -121 -102zM245 -9c-128 0 -214 93 -214 277c0 185 86 278 214 278c83 0 145 -41 170 -103h8l6 93h141v-536h-147v94h-8
c-25 -62 -87 -103 -170 -103zM301 110c82 0 120 64 120 133v51c0 69 -38 133 -120 133c-72 0 -120 -50 -120 -159c0 -108 48 -158 120 -158z" />
    <glyph glyph-name="ae" unicode="&#xe6;" horiz-adv-x="1010" 
d="M243 -9c-126 0 -212 93 -212 277c0 185 86 278 212 278c86 0 147 -41 172 -103h8l6 93h113v-86h8c29 59 101 96 183 96c177 0 264 -128 244 -311h-373c-1 -85 49 -133 123 -133c55 0 98 27 108 68h139c-14 -108 -110 -179 -240 -179c-90 0 -161 35 -187 95h-8v-86h-111
l-5 94h-8c-25 -62 -86 -103 -172 -103zM605 326h228c-2 72 -45 109 -112 109s-111 -42 -116 -109zM301 110c82 0 120 64 120 133v51c0 69 -38 133 -120 133c-72 0 -120 -50 -120 -159c0 -108 48 -158 120 -158z" />
    <glyph glyph-name="b" unicode="b" 
d="M388 -10c-83 0 -145 42 -170 103h-8l-6 -93h-141v729h147v-286h8c25 62 87 103 170 103c128 0 214 -93 214 -278c0 -184 -86 -278 -214 -278zM332 109c72 0 120 50 120 159s-48 159 -120 159c-82 0 -121 -65 -121 -133v-52c0 -68 39 -133 121 -133z" />
    <glyph glyph-name="c" unicode="c" horiz-adv-x="573" 
d="M297 -9c-161 0 -266 110 -266 277c0 168 106 278 271 278c138 0 237 -84 243 -205h-144c-9 56 -50 85 -103 85c-78 0 -118 -62 -118 -158c0 -105 47 -157 117 -157c62 0 100 35 106 87h143c-6 -126 -108 -207 -249 -207z" />
    <glyph glyph-name="ccedilla" unicode="&#xe7;" horiz-adv-x="573" 
d="M282 -248c-78 0 -137 43 -135 113h91c1 -19 12 -38 38 -38c25 0 39 17 39 42c0 27 -18 40 -47 40h-22v86c-132 21 -215 124 -215 273c0 168 106 278 271 278c138 0 237 -84 243 -205h-144c-9 56 -50 85 -103 85c-78 0 -118 -62 -118 -158c0 -105 47 -157 117 -157
c62 0 100 35 106 87h143c-6 -117 -94 -195 -219 -206v-36c54 -6 87 -42 87 -94c0 -69 -56 -110 -132 -110z" />
    <glyph glyph-name="d" unicode="d" 
d="M245 -9c-128 0 -214 93 -214 277c0 185 86 278 214 278c83 0 145 -41 170 -103h8v286h147v-729h-142l-5 94h-8c-25 -62 -87 -103 -170 -103zM301 110c82 0 120 64 120 133v51c0 69 -38 133 -120 133c-72 0 -120 -50 -120 -159c0 -108 48 -158 120 -158z" />
    <glyph glyph-name="e" unicode="e" horiz-adv-x="582" 
d="M298 -9c-168 0 -267 109 -267 273c0 173 103 282 262 282c186 0 274 -133 256 -311h-373c-1 -85 48 -133 122 -133c56 0 98 27 109 68h139c-14 -108 -113 -179 -248 -179zM293 435c-67 0 -110 -41 -116 -106h228c-4 71 -51 106 -112 106z" />
    <glyph glyph-name="eacute" unicode="&#xe9;" horiz-adv-x="582" 
d="M235 598l56 145h147l-92 -145h-111zM298 -9c-168 0 -267 109 -267 273c0 173 103 282 262 282c186 0 274 -132 256 -311h-373c-1 -85 48 -133 122 -133c57 0 98 27 109 68h139c-14 -108 -113 -179 -248 -179zM293 435c-68 0 -111 -42 -117 -109h229
c-3 72 -48 109 -112 109z" />
    <glyph glyph-name="ecircumflex" unicode="&#xea;" horiz-adv-x="582" 
d="M108 598l114 145h139l114 -145h-125l-59 77l-58 -77h-125zM298 -9c-168 0 -267 109 -267 273c0 173 103 282 262 282c186 0 274 -132 256 -311h-373c-1 -85 48 -133 122 -133c57 0 98 27 109 68h139c-14 -108 -113 -179 -248 -179zM293 435c-68 0 -111 -42 -117 -109h229
c-3 72 -48 109 -112 109z" />
    <glyph glyph-name="edieresis" unicode="&#xeb;" horiz-adv-x="582" 
d="M126 612v131h126v-131h-126zM330 612v131h127v-131h-127zM298 -9c-168 0 -267 109 -267 273c0 173 103 282 262 282c186 0 274 -132 256 -311h-373c-1 -85 48 -133 122 -133c57 0 98 27 109 68h139c-14 -108 -113 -179 -248 -179zM293 435c-68 0 -111 -42 -117 -109h229
c-3 72 -48 109 -112 109z" />
    <glyph glyph-name="egrave" unicode="&#xe8;" horiz-adv-x="582" 
d="M236 598l-92 145h146l57 -145h-111zM298 -9c-168 0 -267 109 -267 273c0 173 103 282 262 282c186 0 274 -132 256 -311h-373c-1 -85 48 -133 122 -133c57 0 98 27 109 68h139c-14 -108 -113 -179 -248 -179zM293 435c-68 0 -111 -42 -117 -109h229
c-3 72 -48 109 -112 109z" />
    <glyph glyph-name="f" unicode="f" horiz-adv-x="371" 
d="M101 0v418h-88v118h88v57c0 88 57 136 157 136h108v-99h-65c-41 0 -53 -19 -53 -46v-48h109v-118h-109v-418h-147z" />
    <glyph glyph-name="g" unicode="g" horiz-adv-x="616" 
d="M288 -177c-142 0 -227 64 -235 163h141c7 -36 43 -59 97 -59c86 0 121 36 121 110v92h-8c-24 -58 -85 -97 -162 -97c-128 0 -211 88 -211 257s85 257 212 257c77 0 137 -38 161 -96h8l4 86h143v-472c0 -179 -109 -241 -271 -241zM296 145c75 0 113 55 116 113l-1 64
c-3 56 -40 111 -114 111c-71 0 -116 -47 -116 -144s46 -144 115 -144z" />
    <glyph glyph-name="h" unicode="h" horiz-adv-x="634" 
d="M63 0v729h147v-290h6c29 71 95 107 171 107c107 0 189 -61 189 -222v-324h-147v292c0 90 -30 134 -101 134c-76 0 -118 -60 -118 -128v-298h-147z" />
    <glyph glyph-name="i" unicode="i" horiz-adv-x="273" 
d="M63 605v124h147v-124h-147zM63 0v536h147v-536h-147z" />
    <glyph glyph-name="dotlessi" unicode="&#x131;" horiz-adv-x="273" 
d="M63 0v536h147v-536h-147z" />
    <glyph glyph-name="iacute" unicode="&#xed;" horiz-adv-x="273" 
d="M81 598l56 145h147l-92 -145h-111zM63 0v536h147v-536h-147z" />
    <glyph glyph-name="icircumflex" unicode="&#xee;" horiz-adv-x="273" 
d="M-46 598l114 145h139l114 -145h-125l-59 77l-58 -77h-125zM63 0v536h147v-536h-147z" />
    <glyph glyph-name="idieresis" unicode="&#xef;" horiz-adv-x="273" 
d="M-28 612v131h126v-131h-126zM176 612v131h127v-131h-127zM63 0v536h147v-536h-147z" />
    <glyph glyph-name="igrave" unicode="&#xec;" horiz-adv-x="273" 
d="M82 598l-92 145h146l57 -145h-111zM63 0v536h147v-536h-147z" />
    <glyph glyph-name="j" unicode="j" horiz-adv-x="259" 
d="M48 605v124h148v-124h-148zM-47 -170v112h41c40 0 55 18 55 59v535h147v-548c0 -98 -44 -158 -160 -158h-83z" />
    <glyph glyph-name="k" unicode="k" horiz-adv-x="625" 
d="M63 0v729h149v-415l44 51l159 171h181l-206 -212l210 -324h-173l-109 170l-32 56l-74 -73v-153h-149z" />
    <glyph glyph-name="l" unicode="l" horiz-adv-x="273" 
d="M63 0v729h147v-729h-147z" />
    <glyph glyph-name="m" unicode="m" horiz-adv-x="976" 
d="M63 0v536h142l5 -97h6c27 71 92 107 164 107c75 0 141 -32 170 -120h8c25 80 96 120 177 120c103 0 183 -61 183 -222v-324h-147v292c0 90 -28 134 -95 134c-71 0 -112 -60 -112 -128v-298h-147v292c0 90 -29 134 -95 134c-72 0 -112 -60 -112 -128v-298h-147z" />
    <glyph glyph-name="n" unicode="n" horiz-adv-x="634" 
d="M63 0v536h141l6 -97h6c29 71 95 107 171 107c107 0 189 -61 189 -222v-324h-147v292c0 90 -30 134 -101 134c-76 0 -118 -60 -118 -128v-298h-147z" />
    <glyph glyph-name="ntilde" unicode="&#xf1;" horiz-adv-x="634" 
d="M381 602c-54 1 -78 36 -123 36c-28 0 -45 -16 -62 -36l-58 39c32 77 79 99 121 98c53 0 77 -34 124 -35c35 0 50 23 60 37l59 -37c-27 -74 -74 -103 -121 -102zM63 0v536h141l6 -97h6c29 71 95 107 171 107c107 0 189 -61 189 -222v-324h-147v292c0 90 -30 134 -101 134
c-76 0 -118 -60 -118 -128v-298h-147z" />
    <glyph glyph-name="o" unicode="o" horiz-adv-x="599" 
d="M300 -9c-161 0 -269 103 -269 277c0 166 99 278 269 278c160 0 268 -104 268 -278c0 -166 -99 -277 -268 -277zM299 110c72 0 120 51 120 158c0 106 -46 158 -119 158s-121 -51 -121 -158c0 -106 47 -158 120 -158z" />
    <glyph glyph-name="oacute" unicode="&#xf3;" horiz-adv-x="599" 
d="M243 598l56 145h147l-92 -145h-111zM300 -9c-161 0 -269 103 -269 277c0 166 99 278 269 278c160 0 268 -104 268 -278c0 -166 -99 -277 -268 -277zM299 110c72 0 120 51 120 158c0 106 -46 158 -119 158s-121 -51 -121 -158c0 -106 47 -158 120 -158z" />
    <glyph glyph-name="ocircumflex" unicode="&#xf4;" horiz-adv-x="599" 
d="M116 598l114 145h139l114 -145h-125l-59 77l-58 -77h-125zM300 -9c-161 0 -269 103 -269 277c0 166 99 278 269 278c160 0 268 -104 268 -278c0 -166 -99 -277 -268 -277zM299 110c72 0 120 51 120 158c0 106 -46 158 -119 158s-121 -51 -121 -158
c0 -106 47 -158 120 -158z" />
    <glyph glyph-name="odieresis" unicode="&#xf6;" horiz-adv-x="599" 
d="M134 612v131h126v-131h-126zM338 612v131h127v-131h-127zM300 -9c-161 0 -269 103 -269 277c0 166 99 278 269 278c160 0 268 -104 268 -278c0 -166 -99 -277 -268 -277zM299 110c72 0 120 51 120 158c0 106 -46 158 -119 158s-121 -51 -121 -158
c0 -106 47 -158 120 -158z" />
    <glyph glyph-name="ograve" unicode="&#xf2;" horiz-adv-x="599" 
d="M244 598l-92 145h146l57 -145h-111zM300 -9c-161 0 -269 103 -269 277c0 166 99 278 269 278c160 0 268 -104 268 -278c0 -166 -99 -277 -268 -277zM299 110c72 0 120 51 120 158c0 106 -46 158 -119 158s-121 -51 -121 -158c0 -106 47 -158 120 -158z" />
    <glyph glyph-name="oslash" unicode="&#xf8;" horiz-adv-x="599" 
d="M12 -60l92 125c-46 48 -73 117 -73 203c0 166 99 278 269 278c51 0 97 -11 136 -31l60 81h90l-91 -124c46 -48 73 -117 73 -204c0 -166 -99 -277 -268 -277c-52 0 -98 11 -137 31l-60 -82h-91zM179 268c0 -33 5 -61 13 -84l167 227c-16 10 -36 15 -59 15
c-73 0 -121 -51 -121 -158zM299 110c72 0 120 51 120 158c0 33 -4 61 -13 84l-167 -227c17 -10 37 -15 60 -15z" />
    <glyph glyph-name="otilde" unicode="&#xf5;" horiz-adv-x="599" 
d="M361 602c-54 1 -78 36 -123 36c-28 0 -45 -16 -62 -36l-58 39c32 77 79 99 121 98c53 0 77 -34 124 -35c35 0 50 23 60 37l59 -37c-27 -74 -74 -103 -121 -102zM300 -9c-161 0 -269 103 -269 277c0 166 99 278 269 278c160 0 268 -104 268 -278
c0 -166 -99 -277 -268 -277zM299 110c72 0 120 51 120 158c0 106 -46 158 -119 158s-121 -51 -121 -158c0 -106 47 -158 120 -158z" />
    <glyph glyph-name="oe" unicode="&#x153;" horiz-adv-x="975" 
d="M300 -9c-161 0 -269 103 -269 277c0 166 99 278 269 278c81 0 148 -26 195 -75c46 48 111 75 190 75c186 0 274 -132 256 -311h-373c-1 -85 48 -133 122 -133c57 0 98 27 109 68h139c-14 -108 -113 -179 -248 -179c-83 0 -149 27 -195 74c-46 -47 -112 -74 -195 -74z
M685 435c-68 0 -111 -42 -117 -109h229c-3 72 -48 109 -112 109zM299 110c72 0 120 51 120 158c0 106 -46 158 -119 158s-121 -51 -121 -158c0 -106 47 -158 120 -158z" />
    <glyph glyph-name="p" unicode="p" 
d="M63 -167v703h142l5 -93h8c25 62 87 103 170 103c128 0 215 -93 215 -278c0 -184 -87 -278 -215 -278c-83 0 -145 42 -170 103h-8v-260h-147zM333 109c72 0 119 50 119 159s-47 159 -119 159c-83 0 -121 -65 -121 -133v-52c0 -68 38 -133 121 -133z" />
    <glyph glyph-name="thorn" unicode="&#xfe;" 
d="M63 -167v896h147v-286h8c25 62 87 103 170 103c128 0 214 -93 214 -278c0 -184 -86 -278 -214 -278c-83 0 -145 42 -170 103h-8v-260h-147zM332 109c72 0 120 50 120 159s-48 159 -120 159c-82 0 -121 -65 -121 -133v-52c0 -68 39 -133 121 -133z" />
    <glyph glyph-name="q" unicode="q" 
d="M423 -167v261h-8c-25 -62 -87 -103 -170 -103c-128 0 -214 93 -214 277c0 185 86 278 214 278c83 0 145 -41 170 -103h8l6 93h141v-703h-147zM301 110c82 0 120 64 120 133v51c0 69 -38 133 -120 133c-72 0 -120 -50 -120 -159c0 -108 48 -158 120 -158z" />
    <glyph glyph-name="r" unicode="r" horiz-adv-x="399" 
d="M63 0v536h133l6 -86h5c24 69 80 93 148 93h30v-138h-33c-99 0 -140 -45 -142 -125v-280h-147z" />
    <glyph glyph-name="s" unicode="s" horiz-adv-x="557" 
d="M278 -10c-156 0 -244 72 -243 179h144c1 -57 45 -80 103 -80c60 0 91 22 91 58c0 49 -34 56 -110 67c-119 16 -214 44 -214 162c0 113 94 170 234 170c137 0 224 -63 227 -169h-144c0 45 -34 70 -87 70c-55 0 -83 -23 -83 -56c0 -40 34 -52 113 -62
c111 -15 212 -37 212 -168c0 -118 -92 -171 -243 -171z" />
    <glyph glyph-name="germandbls" unicode="&#xdf;" horiz-adv-x="674" 
d="M107 -167v586h-100v117h104c20 144 124 203 250 203c143 0 232 -78 232 -193c0 -68 -35 -126 -95 -146v-7c81 -11 144 -78 144 -178c0 -128 -85 -215 -256 -215h-132v-167h-147zM360 610c-66 0 -106 -40 -106 -111v-381h116c78 0 122 37 122 113c0 68 -40 103 -113 103
h-49v94h25c65 0 103 38 103 91s-35 91 -98 91z" />
    <glyph glyph-name="t" unicode="t" horiz-adv-x="385" 
d="M240 0c-109 0 -137 50 -137 131v287h-96v118h96v146l146 14v-160h108v-118h-108v-259c0 -32 15 -40 43 -40h65v-119h-117z" />
    <glyph glyph-name="u" unicode="u" horiz-adv-x="629" 
d="M249 -9c-124 0 -191 74 -191 211v334h147v-295c0 -85 29 -131 102 -131c74 0 117 59 117 130v296h147v-536h-141l-6 98h-7c-26 -70 -91 -107 -168 -107z" />
    <glyph glyph-name="uacute" unicode="&#xfa;" horiz-adv-x="629" 
d="M259 598l56 145h147l-92 -145h-111zM249 -9c-124 0 -191 74 -191 211v334h147v-295c0 -85 29 -131 102 -131c74 0 117 59 117 130v296h147v-536h-141l-6 98h-7c-26 -70 -91 -107 -168 -107z" />
    <glyph glyph-name="ucircumflex" unicode="&#xfb;" horiz-adv-x="629" 
d="M131 598l114 145h139l114 -145h-125l-59 77l-58 -77h-125zM249 -9c-124 0 -191 74 -191 211v334h147v-295c0 -85 29 -131 102 -131c74 0 117 59 117 130v296h147v-536h-141l-6 98h-7c-26 -70 -91 -107 -168 -107z" />
    <glyph glyph-name="udieresis" unicode="&#xfc;" horiz-adv-x="629" 
d="M149 612v131h126v-131h-126zM353 612v131h127v-131h-127zM249 -9c-124 0 -191 74 -191 211v334h147v-295c0 -85 29 -131 102 -131c74 0 117 59 117 130v296h147v-536h-141l-6 98h-7c-26 -70 -91 -107 -168 -107z" />
    <glyph glyph-name="ugrave" unicode="&#xf9;" horiz-adv-x="629" 
d="M260 598l-92 145h146l57 -145h-111zM249 -9c-124 0 -191 74 -191 211v334h147v-295c0 -85 29 -131 102 -131c74 0 117 59 117 130v296h147v-536h-141l-6 98h-7c-26 -70 -91 -107 -168 -107z" />
    <glyph glyph-name="v" unicode="v" horiz-adv-x="546" 
d="M182 0l-183 537h158l81 -287l32 -128h5l32 127l81 288h159l-182 -537h-183z" />
    <glyph glyph-name="w" unicode="w" horiz-adv-x="797" 
d="M133 0l-128 536h152l83 -389h6l76 389h160l76 -391h4l84 391h146l-129 -536h-192l-73 349h-5l-71 -349h-189z" />
    <glyph glyph-name="wacute" unicode="&#x1e83;" horiz-adv-x="797" 
d="M343 598l56 145h147l-92 -145h-111zM133 0l-128 536h152l83 -389h6l76 389h160l76 -391h4l84 391h146l-129 -536h-192l-73 349h-5l-71 -349h-189z" />
    <glyph glyph-name="wcircumflex" unicode="&#x175;" horiz-adv-x="797" 
d="M215 598l114 145h139l114 -145h-125l-59 77l-58 -77h-125zM133 0l-128 536h152l83 -389h6l76 389h160l76 -391h4l84 391h146l-129 -536h-192l-73 349h-5l-71 -349h-189z" />
    <glyph glyph-name="wdieresis" unicode="&#x1e85;" horiz-adv-x="797" 
d="M233 612v131h126v-131h-126zM437 612v131h127v-131h-127zM133 0l-128 536h152l83 -389h6l76 389h160l76 -391h4l84 391h146l-129 -536h-192l-73 349h-5l-71 -349h-189z" />
    <glyph glyph-name="wgrave" unicode="&#x1e81;" horiz-adv-x="797" 
d="M344 598l-92 145h146l57 -145h-111zM133 0l-128 536h152l83 -389h6l76 389h160l76 -391h4l84 391h146l-129 -536h-192l-73 349h-5l-71 -349h-189z" />
    <glyph glyph-name="x" unicode="x" horiz-adv-x="590" 
d="M-4 0l201 275l-183 261h175l107 -161h6l106 161h167l-178 -257l197 -279h-173l-124 182h-6l-130 -182h-165z" />
    <glyph glyph-name="y" unicode="y" horiz-adv-x="543" 
d="M47 -167v121h62c44 0 68 17 82 55l13 33l-205 494h161l98 -287l17 -57h5l16 57l92 287h157l-209 -561c-41 -112 -107 -142 -199 -142h-90z" />
    <glyph glyph-name="yacute" unicode="&#xfd;" horiz-adv-x="543" 
d="M216 598l56 145h147l-92 -145h-111zM47 -167v121h62c44 0 68 17 82 55l13 33l-205 494h161l98 -287l17 -57h5l16 57l92 287h157l-209 -561c-41 -112 -107 -142 -199 -142h-90z" />
    <glyph glyph-name="ycircumflex" unicode="&#x177;" horiz-adv-x="543" 
d="M88 598l114 145h139l114 -145h-125l-59 77l-58 -77h-125zM47 -167v121h62c44 0 68 17 82 55l13 33l-205 494h161l98 -287l17 -57h5l16 57l92 287h157l-209 -561c-41 -112 -107 -142 -199 -142h-90z" />
    <glyph glyph-name="ydieresis" unicode="&#xff;" horiz-adv-x="543" 
d="M106 612v131h126v-131h-126zM310 612v131h127v-131h-127zM47 -167v121h62c44 0 68 17 82 55l13 33l-205 494h161l98 -287l17 -57h5l16 57l92 287h157l-209 -561c-41 -112 -107 -142 -199 -142h-90z" />
    <glyph glyph-name="ygrave" unicode="&#x1ef3;" horiz-adv-x="543" 
d="M217 598l-92 145h146l57 -145h-111zM47 -167v121h62c44 0 68 17 82 55l13 33l-205 494h161l98 -287l17 -57h5l16 57l92 287h157l-209 -561c-41 -112 -107 -142 -199 -142h-90z" />
    <glyph glyph-name="z" unicode="z" horiz-adv-x="529" 
d="M29 0v105l273 313h-257v118h445v-103l-274 -315h285v-118h-472z" />
    <glyph glyph-name="a.ss01" horiz-adv-x="569" 
d="M200 -9c-105 0 -176 61 -176 152c0 121 94 171 217 171h125v37c0 49 -28 81 -91 81s-95 -29 -95 -72h-137c0 113 90 186 242 186c143 0 228 -63 228 -201v-236c0 -38 2 -94 9 -109h-139c-5 15 -9 45 -10 84h-6c-18 -56 -85 -93 -167 -93zM258 100c66 0 108 34 108 92v38
h-97c-65 0 -97 -22 -97 -65c0 -42 31 -65 86 -65z" />
    <glyph glyph-name="g.ss01" horiz-adv-x="561" 
d="M185 -167c-123 0 -179 45 -179 114c0 58 50 96 105 102v8c-43 13 -69 47 -69 87c0 48 36 84 89 96v10c-46 25 -75 70 -75 130c0 100 87 166 223 166c22 0 48 -3 70 -10c18 76 83 122 184 123v-114c-51 1 -93 -11 -114 -38c48 -23 82 -74 82 -137
c0 -99 -81 -162 -224 -162c-27 0 -54 3 -79 8c-22 -2 -35 -16 -35 -34c0 -26 34 -30 70 -30h130c125 0 182 -49 185 -144c4 -120 -84 -175 -210 -175h-153zM280 300c54 0 85 32 85 77c0 49 -35 77 -86 77c-54 0 -86 -33 -86 -77c0 -48 35 -77 87 -77zM207 -85h129
c43 0 67 18 67 51c0 38 -30 46 -63 46h-164c-26 -6 -43 -24 -43 -48c0 -34 27 -49 74 -49z" />
    <glyph glyph-name="ordfeminine" unicode="&#xaa;" horiz-adv-x="414" 
d="M158 375c-83 0 -139 60 -139 181c0 120 56 181 139 181c54 0 94 -26 110 -66h5l4 59h98v-349h-102v60h-5c-16 -40 -56 -66 -110 -66zM198 456c51 0 74 41 74 83v33c0 42 -23 84 -74 84c-46 0 -75 -32 -75 -100s29 -100 75 -100z" />
    <glyph glyph-name="ordmasculine" unicode="&#xba;" horiz-adv-x="390" 
d="M195 375c-105 0 -176 67 -176 180c0 108 65 182 176 182c105 0 176 -68 176 -181c0 -108 -65 -181 -176 -181zM195 456c44 0 74 32 74 100c0 67 -29 99 -74 99c-44 0 -73 -32 -73 -100c0 -66 29 -99 73 -99z" />
    <glyph glyph-name="uni03BC" unicode="&#x3bc;" horiz-adv-x="629" 
d="M58 -132v668h147v-321c0 -68 37 -105 103 -105c80 0 116 52 116 130v296h147v-536h-141l-6 98h-7c-27 -72 -91 -107 -167 -107c-16 0 -31 2 -45 5v-128h-147z" />
    <glyph glyph-name="pi" unicode="&#x3c0;" horiz-adv-x="614" 
d="M519 -6c-119 0 -146 69 -146 150v272h-140v-416h-143v416h-81v120h588v-120h-80v-257c0 -40 16 -59 49 -59c8 0 21 2 30 5v-99c-21 -6 -54 -12 -77 -12z" />
    <glyph glyph-name="zero" unicode="0" horiz-adv-x="610" 
d="M305 -7c-171 0 -273 141 -273 370c0 236 110 367 276 367c170 0 271 -141 271 -369c0 -238 -110 -368 -274 -368zM306 117c74 0 127 55 127 245s-53 244 -127 244c-75 0 -127 -54 -127 -244s52 -245 127 -245z" />
    <glyph glyph-name="one" unicode="1" horiz-adv-x="440" 
d="M204 0v484h-182v112h30c95 0 153 50 160 125h139v-721h-147z" />
    <glyph glyph-name="two" unicode="2" horiz-adv-x="594" 
d="M40 0v21c0 298 352 327 352 486c0 60 -41 97 -102 97c-65 0 -108 -42 -102 -118h-146c-4 148 100 244 257 244c147 0 245 -82 245 -216c0 -212 -261 -264 -317 -385h324v-129h-511z" />
    <glyph glyph-name="three" unicode="3" horiz-adv-x="614" 
d="M297 -9c-164 0 -260 93 -264 233h146c0 -65 47 -108 118 -108s117 40 117 104c0 61 -42 93 -102 93h-90v110h78c67 0 103 39 103 92c0 57 -41 90 -105 90c-69 0 -111 -41 -112 -105h-147c3 140 106 230 266 230c149 0 248 -76 248 -194c0 -77 -41 -137 -103 -160v-6
c73 -19 114 -83 114 -164c0 -129 -109 -215 -267 -215z" />
    <glyph glyph-name="four" unicode="4" horiz-adv-x="655" 
d="M375 0l-1 165h-337v110l302 446h183v-436h94l-1 -120h-93v-165h-147zM183 285h192v279z" />
    <glyph glyph-name="five" unicode="5" horiz-adv-x="625" 
d="M310 -9c-158 0 -260 92 -263 228h149c2 -60 47 -100 115 -100c74 0 119 50 119 120c0 74 -46 124 -120 124c-57 0 -94 -29 -109 -69h-140l19 427h456v-128h-326l-7 -151l6 -2c27 27 79 45 133 45c147 0 237 -101 237 -242c0 -151 -103 -252 -269 -252z" />
    <glyph glyph-name="six" unicode="6" horiz-adv-x="625" 
d="M320 -9c-172 0 -275 113 -275 353c0 260 101 386 284 386c145 0 237 -78 249 -197h-143c-9 44 -52 70 -107 70c-98 0 -135 -78 -134 -209h6c25 50 83 84 160 84c135 0 225 -96 225 -238c0 -158 -108 -249 -265 -249zM323 119c70 0 115 49 115 125s-45 123 -115 123
c-72 0 -116 -52 -116 -125c0 -76 45 -123 116 -123z" />
    <glyph glyph-name="seven" unicode="7" horiz-adv-x="626" 
d="M202 0c0 276 98 454 195 593h-236v-125h-117v253h528v-106c-120 -170 -212 -323 -212 -615h-158z" />
    <glyph glyph-name="eight" unicode="8" horiz-adv-x="626" 
d="M313 -7c-162 0 -270 76 -270 202c0 83 51 153 131 168v6c-77 19 -118 83 -118 161c0 118 95 200 257 200s258 -82 258 -202c0 -74 -40 -139 -119 -159v-6c81 -14 131 -82 131 -167c0 -126 -108 -203 -270 -203zM313 422c73 0 109 37 109 93c0 58 -42 93 -109 93
s-108 -35 -108 -93s39 -93 108 -93zM313 120c71 0 115 34 115 95c0 55 -38 92 -115 92c-78 0 -114 -38 -114 -92c0 -62 45 -95 114 -95z" />
    <glyph glyph-name="nine" unicode="9" horiz-adv-x="625" 
d="M300 -9c-145 0 -237 79 -249 197h143c9 -43 50 -70 107 -70c96 0 132 77 131 209h-7c-24 -50 -82 -83 -160 -83c-134 0 -224 95 -224 238c0 157 107 248 264 248c173 0 276 -113 276 -354c0 -267 -102 -385 -281 -385zM302 354c72 0 117 52 117 126
c0 75 -46 122 -117 122c-70 0 -115 -48 -115 -125c0 -76 45 -123 115 -123z" />
    <glyph glyph-name="uni2780" unicode="&#x2780;" horiz-adv-x="869" 
d="M434 -9c-227 0 -388 150 -388 373c0 224 161 374 388 374c228 0 389 -150 389 -374c0 -223 -161 -373 -389 -373zM434 50c194 0 324 126 324 314c0 189 -130 315 -324 315c-193 0 -323 -126 -323 -315c0 -188 130 -314 323 -314zM422 166v267h-94v61h15c51 0 80 30 84 69
h76v-397h-81z" />
    <glyph glyph-name="uni2781" unicode="&#x2781;" horiz-adv-x="869" 
d="M434 -9c-227 0 -388 150 -388 373c0 224 161 374 388 374c228 0 389 -150 389 -374c0 -223 -161 -373 -389 -373zM434 50c194 0 324 126 324 314c0 189 -130 315 -324 315c-193 0 -323 -126 -323 -315c0 -188 130 -314 323 -314zM303 163v11c0 165 178 181 178 268
c0 32 -20 53 -48 53c-34 0 -51 -27 -48 -64h-81c-3 82 53 134 133 134c76 0 128 -45 128 -119c0 -114 -122 -145 -159 -215c22 2 46 3 71 3h90v-71h-264z" />
    <glyph glyph-name="uni2782" unicode="&#x2782;" horiz-adv-x="869" 
d="M434 -9c-227 0 -388 150 -388 373c0 224 161 374 388 374c228 0 389 -150 389 -374c0 -223 -161 -373 -389 -373zM434 50c194 0 324 126 324 314c0 189 -130 315 -324 315c-193 0 -323 -126 -323 -315c0 -188 130 -314 323 -314zM434 161c-83 0 -135 50 -136 128h80
c0 -36 24 -58 56 -58c33 0 56 23 56 56s-21 51 -48 51h-48v62h41c31 0 49 21 49 50c0 31 -21 49 -49 49c-33 0 -54 -25 -54 -57h-81c2 77 56 126 138 126c75 0 130 -40 130 -107c0 -42 -22 -75 -52 -88v-3c38 -12 57 -48 57 -90c0 -71 -58 -119 -139 -119z" />
    <glyph glyph-name="uni2783" unicode="&#x2783;" horiz-adv-x="869" 
d="M46 364c0 224 161 374 388 374c228 0 389 -150 389 -374c0 -223 -161 -373 -389 -373c-227 0 -388 150 -388 373zM111 364c0 -188 130 -314 323 -314c194 0 324 126 324 314c0 189 -130 315 -324 315c-193 0 -323 -126 -323 -315zM273 257v61l153 245h99v-239h47v-67h-47
v-91h-81l-1 91h-170zM352 324h92v144z" />
    <glyph glyph-name="uni2784" unicode="&#x2784;" horiz-adv-x="869" 
d="M434 -9c-227 0 -388 150 -388 373c0 224 161 374 388 374c228 0 389 -150 389 -374c0 -223 -161 -373 -389 -373zM434 50c194 0 324 126 324 314c0 189 -130 315 -324 315c-193 0 -323 -126 -323 -315c0 -188 130 -314 323 -314zM434 163c-81 0 -135 50 -137 126h83
c1 -31 22 -55 55 -55s56 28 56 66c0 39 -23 69 -57 69c-26 0 -45 -15 -52 -39h-77l9 235h233v-70h-161l-3 -83l4 -1c13 14 38 25 64 25c74 0 122 -57 122 -133c0 -83 -54 -140 -139 -140z" />
    <glyph glyph-name="uni2785" unicode="&#x2785;" horiz-adv-x="869" 
d="M434 -9c-227 0 -388 150 -388 373c0 224 161 374 388 374c228 0 389 -150 389 -374c0 -223 -161 -373 -389 -373zM434 50c194 0 324 126 324 314c0 189 -130 315 -324 315c-193 0 -323 -126 -323 -315c0 -188 130 -314 323 -314zM440 161c-91 0 -145 63 -145 195
c0 141 53 212 147 212c74 0 123 -42 130 -109h-79c-5 25 -27 39 -51 39c-46 0 -65 -44 -64 -115h3c13 29 43 46 79 46c76 0 115 -52 115 -129c0 -92 -56 -139 -135 -139zM440 231c32 0 54 28 54 69s-22 69 -54 69c-34 0 -55 -29 -55 -70c0 -42 21 -68 55 -68z" />
    <glyph glyph-name="uni2786" unicode="&#x2786;" horiz-adv-x="869" 
d="M434 -9c-227 0 -388 150 -388 373c0 224 161 374 388 374c228 0 389 -150 389 -374c0 -223 -161 -373 -389 -373zM434 50c194 0 324 126 324 314c0 189 -130 315 -324 315c-193 0 -323 -126 -323 -315c0 -188 130 -314 323 -314zM379 166c0 144 44 244 97 327h-112v-69
h-66v139h274v-59c-64 -98 -105 -183 -105 -338h-88z" />
    <glyph glyph-name="uni2787" unicode="&#x2787;" horiz-adv-x="869" 
d="M434 -9c-227 0 -388 150 -388 373c0 224 161 374 388 374c228 0 389 -150 389 -374c0 -223 -161 -373 -389 -373zM434 50c194 0 324 126 324 314c0 189 -130 315 -324 315c-193 0 -323 -126 -323 -315c0 -188 130 -314 323 -314zM436 162c-84 0 -141 42 -141 111
c0 46 27 85 66 92v4c-39 11 -59 47 -59 89c0 63 49 109 134 109c82 0 132 -45 132 -110c0 -41 -19 -78 -58 -88v-4c42 -8 64 -49 64 -92c0 -68 -56 -111 -138 -111zM436 397c32 0 50 21 50 51c0 32 -20 51 -50 51c-32 0 -51 -20 -51 -51s18 -51 51 -51zM436 231
c32 0 53 19 53 52c0 30 -19 51 -53 51c-36 0 -54 -21 -54 -51c0 -33 20 -52 54 -52z" />
    <glyph glyph-name="uni2788" unicode="&#x2788;" horiz-adv-x="869" 
d="M434 -9c-227 0 -388 150 -388 373c0 224 161 374 388 374c228 0 389 -150 389 -374c0 -223 -161 -373 -389 -373zM434 50c194 0 324 126 324 314c0 189 -130 315 -324 315c-193 0 -323 -126 -323 -315c0 -188 130 -314 323 -314zM429 161c-71 0 -122 39 -129 109h79
c3 -20 21 -39 50 -39c45 0 64 44 63 115h-4c-10 -24 -35 -45 -77 -45c-75 0 -116 52 -116 129c0 91 55 138 136 138c89 0 144 -62 144 -195c0 -154 -57 -212 -146 -212zM431 362c36 0 54 28 54 68c0 41 -21 67 -54 67c-34 0 -55 -27 -55 -67c0 -42 21 -68 55 -68z" />
    <glyph glyph-name="uni2776" unicode="&#x2776;" horiz-adv-x="872" 
d="M436 -9c-230 0 -390 150 -390 373c0 224 161 374 390 374s391 -150 391 -374c0 -223 -162 -373 -391 -373zM424 166h80v397h-76c-4 -39 -32 -69 -84 -69h-15v-61h95v-267z" />
    <glyph glyph-name="uni2777" unicode="&#x2777;" horiz-adv-x="872" 
d="M436 -9c-230 0 -390 150 -390 373c0 224 161 374 390 374s391 -150 391 -374c0 -223 -162 -373 -391 -373zM305 163h264v71h-90c-25 0 -49 -1 -71 -3c37 70 159 101 159 215c0 74 -52 119 -128 119c-80 0 -135 -52 -132 -134h80c-3 37 14 64 48 64c28 0 48 -21 48 -53
c0 -87 -178 -103 -178 -268v-11z" />
    <glyph glyph-name="uni2778" unicode="&#x2778;" horiz-adv-x="872" 
d="M436 -9c-230 0 -390 150 -390 373c0 224 161 374 390 374s391 -150 391 -374c0 -223 -162 -373 -391 -373zM436 161c80 0 138 48 138 119c0 42 -19 78 -57 90v3c30 13 52 46 52 88c0 67 -55 107 -129 107c-82 0 -137 -49 -138 -126h80c1 32 21 57 54 57
c29 0 50 -18 50 -49c0 -29 -18 -50 -50 -50h-40v-62h47c27 0 48 -18 48 -51s-22 -56 -56 -56c-32 0 -56 22 -56 58h-80c2 -78 54 -128 137 -128z" />
    <glyph glyph-name="uni2779" unicode="&#x2779;" horiz-adv-x="872" 
d="M46 364c0 224 161 374 390 374s391 -150 391 -374c0 -223 -162 -373 -391 -373c-230 0 -390 150 -390 373zM286 257h171v-91h82v91h46l1 67h-47v239h-100l-153 -245v-61zM365 324l92 144v-144h-92z" />
    <glyph glyph-name="uni277A" unicode="&#x277a;" horiz-adv-x="872" 
d="M436 -9c-230 0 -390 150 -390 373c0 224 161 374 390 374s391 -150 391 -374c0 -223 -162 -373 -391 -373zM435 163c85 0 139 57 139 140c0 76 -47 133 -121 133c-27 0 -52 -11 -65 -25l-3 1l2 83h161v70h-232l-10 -235h77c7 24 26 39 52 39c34 0 58 -30 58 -69
c0 -38 -23 -66 -57 -66c-32 0 -53 24 -55 55h-82c2 -76 56 -126 136 -126z" />
    <glyph glyph-name="uni277B" unicode="&#x277b;" horiz-adv-x="872" 
d="M436 -9c-230 0 -390 150 -390 373c0 224 161 374 390 374s391 -150 391 -374c0 -223 -162 -373 -391 -373zM442 161c79 0 135 47 135 139c0 77 -39 129 -115 129c-36 0 -66 -17 -78 -46h-4c-1 71 18 115 64 115c24 0 46 -14 51 -39h79c-7 67 -56 109 -130 109
c-94 0 -147 -71 -147 -212c0 -132 55 -195 145 -195zM442 231c-33 0 -55 26 -55 68c0 41 21 70 55 70c33 0 54 -28 54 -69s-22 -69 -54 -69z" />
    <glyph glyph-name="uni277C" unicode="&#x277c;" horiz-adv-x="872" 
d="M436 -9c-230 0 -390 150 -390 373c0 224 161 374 390 374s391 -150 391 -374c0 -223 -162 -373 -391 -373zM380 166h88c0 155 41 240 105 338v59h-273v-139h65v69h112c-52 -83 -97 -183 -97 -327z" />
    <glyph glyph-name="uni277D" unicode="&#x277d;" horiz-adv-x="872" 
d="M46 364c0 224 161 374 390 374s391 -150 391 -374c0 -223 -162 -373 -391 -373c-230 0 -390 150 -390 373zM297 273c0 -69 58 -111 141 -111c82 0 139 43 139 111c0 43 -23 84 -65 92v4c39 10 58 47 58 88c0 65 -50 110 -132 110c-85 0 -134 -46 -134 -109
c0 -42 20 -78 59 -89v-4c-39 -7 -66 -46 -66 -92zM387 448c0 31 18 51 50 51c30 0 50 -19 50 -51c0 -30 -18 -51 -50 -51s-50 20 -50 51zM383 283c0 30 18 51 54 51c34 0 53 -21 53 -51c0 -33 -21 -52 -53 -52c-33 0 -54 19 -54 52z" />
    <glyph glyph-name="uni277E" unicode="&#x277e;" horiz-adv-x="872" 
d="M436 -9c-230 0 -390 150 -390 373c0 224 161 374 390 374s391 -150 391 -374c0 -223 -162 -373 -391 -373zM431 161c89 0 146 58 146 212c0 133 -55 195 -144 195c-80 0 -136 -47 -136 -138c0 -77 41 -129 117 -129c41 0 66 21 76 45h4c1 -71 -17 -115 -63 -115
c-29 0 -47 19 -50 39h-79c7 -70 58 -109 129 -109zM433 362c-34 0 -55 26 -55 68c0 40 21 67 55 67c33 0 55 -26 55 -67c0 -40 -19 -68 -55 -68z" />
    <glyph glyph-name="zero.tf" horiz-adv-x="600" 
d="M300 -7c-172 0 -274 141 -274 370c0 236 111 367 276 367c171 0 272 -141 272 -369c0 -238 -110 -368 -274 -368zM173 362c0 -13 0 -26 1 -37l241 168c-19 85 -61 113 -115 113c-75 0 -127 -54 -127 -244zM300 117c75 0 127 55 127 245c0 12 0 24 -1 35l-241 -167
c20 -85 62 -113 115 -113z" />
    <glyph glyph-name="one.tf" horiz-adv-x="600" 
d="M30 0v129h212v346h-187v112h32c98 0 155 59 163 134h139v-592h182v-129h-541z" />
    <glyph glyph-name="two.tf" horiz-adv-x="600" 
d="M45 0v21c0 298 352 327 352 486c0 60 -41 97 -102 97c-65 0 -108 -42 -103 -118h-145c-4 148 100 244 257 244c147 0 245 -82 245 -216c0 -215 -267 -266 -320 -385h327v-129h-511z" />
    <glyph glyph-name="three.tf" horiz-adv-x="600" 
d="M297 -9c-162 0 -258 96 -261 233h145c0 -65 48 -108 117 -108c68 0 115 41 115 104c0 58 -41 93 -100 93h-90v110h78c66 0 102 39 102 92c0 56 -42 90 -104 90c-64 0 -109 -40 -111 -105h-147c3 140 109 230 264 230c146 0 248 -74 248 -194c0 -76 -40 -137 -103 -160v-6
c75 -21 114 -85 114 -164c0 -129 -111 -215 -267 -215z" />
    <glyph glyph-name="four.tf" horiz-adv-x="600" 
d="M344 0v165h-316v110l281 446h182v-436h82v-120h-82v-165h-147zM167 285h177v281z" />
    <glyph glyph-name="five.tf" horiz-adv-x="600" 
d="M297 -9c-155 0 -257 92 -260 228h148c4 -62 50 -100 113 -100c70 0 117 50 117 120c0 71 -47 124 -118 124c-55 0 -93 -29 -107 -69h-139l19 427h444v-128h-315l-7 -151l7 -2c26 27 78 45 130 45c143 0 234 -101 234 -242c0 -150 -103 -252 -266 -252z" />
    <glyph glyph-name="six.tf" horiz-adv-x="600" 
d="M305 -9c-170 0 -273 113 -273 353c0 260 101 386 282 386c144 0 235 -78 247 -197h-143c-10 46 -53 70 -105 70c-95 0 -132 -78 -131 -209h6c24 50 82 84 158 84c132 0 222 -96 222 -238c0 -158 -107 -249 -263 -249zM308 119c69 0 113 49 113 125s-44 123 -113 123
c-70 0 -113 -52 -113 -125c0 -76 45 -123 113 -123z" />
    <glyph glyph-name="seven.tf" horiz-adv-x="600" 
d="M195 0c0 276 98 454 195 593h-236v-125h-118v253h528v-106c-119 -170 -211 -323 -211 -615h-158z" />
    <glyph glyph-name="eight.tf" horiz-adv-x="600" 
d="M300 -7c-160 0 -268 76 -268 202c0 83 50 153 130 168v6c-76 19 -117 84 -117 161c0 118 95 200 255 200c162 0 256 -82 256 -202c0 -74 -38 -139 -117 -159v-6c80 -14 130 -82 130 -167c0 -126 -108 -203 -269 -203zM300 422c71 0 108 37 108 93c0 58 -41 93 -108 93
c-66 0 -105 -35 -105 -93s38 -93 105 -93zM300 120c70 0 114 34 114 95c0 55 -39 92 -114 92s-112 -38 -112 -92c0 -62 44 -95 112 -95z" />
    <glyph glyph-name="nine.tf" horiz-adv-x="600" 
d="M289 -9c-143 0 -235 79 -246 197h143c9 -43 49 -70 104 -70c94 0 130 77 128 209h-6c-25 -50 -82 -83 -157 -83c-133 0 -223 95 -223 238c0 157 107 248 263 248c170 0 273 -113 273 -354c0 -267 -102 -385 -279 -385zM291 354c71 0 114 52 114 126
c0 75 -44 122 -113 122s-113 -48 -113 -125c0 -76 44 -123 112 -123z" />
    <glyph glyph-name="zero.tf.ss03" horiz-adv-x="600" 
d="M300 -7c-172 0 -274 141 -274 370c0 236 111 367 276 367c171 0 272 -141 272 -369c0 -238 -110 -368 -274 -368zM300 606c-69 0 -118 -45 -126 -199h252c-8 154 -57 199 -126 199zM300 117c68 0 118 46 126 198h-252c8 -152 58 -198 126 -198z" />
    <glyph glyph-name="uni2080" unicode="&#x2080;" horiz-adv-x="370" 
d="M185 -34c-105 0 -167 87 -167 222c0 142 68 220 169 220c104 0 165 -86 165 -221c0 -142 -67 -221 -167 -221zM185 49c40 0 69 27 69 138c0 112 -29 139 -69 139c-39 0 -69 -27 -69 -139s30 -138 69 -138z" />
    <glyph glyph-name="uni2081" unicode="&#x2081;" horiz-adv-x="271" 
d="M123 -30v282h-111v75h19c55 0 93 30 98 76h92v-433h-98z" />
    <glyph glyph-name="uni2082" unicode="&#x2082;" horiz-adv-x="361" 
d="M23 -30v13c0 183 208 199 208 289c0 33 -23 52 -55 52c-33 0 -58 -21 -54 -65h-97c-3 91 61 149 156 149c91 0 151 -49 151 -131c0 -126 -145 -156 -183 -221h186v-86h-312z" />
    <glyph glyph-name="uni2083" unicode="&#x2083;" horiz-adv-x="374" 
d="M180 -36c-102 0 -159 58 -161 140h97c1 -33 25 -57 65 -57c38 0 63 22 63 57c0 32 -22 50 -54 50h-55v73h47c36 0 56 20 56 49c0 31 -23 48 -56 48c-37 0 -60 -20 -62 -54h-98c3 84 67 138 164 138c91 0 152 -46 152 -117c0 -47 -25 -82 -60 -95v-4c42 -12 67 -48 67 -98
c0 -78 -67 -130 -165 -130z" />
    <glyph glyph-name="uni2084" unicode="&#x2084;" horiz-adv-x="398" 
d="M221 -30l-1 96h-199v73l177 264h120v-257h56l-1 -80h-55v-96h-97zM117 146h104v151z" />
    <glyph glyph-name="uni2085" unicode="&#x2085;" horiz-adv-x="379" 
d="M189 -36c-96 0 -160 56 -161 137h98c3 -31 28 -51 63 -51c40 0 65 27 65 64c0 39 -25 67 -66 67c-31 0 -51 -15 -59 -38h-93l12 260h278v-86h-192l-4 -76l4 -2c17 15 48 23 76 23c89 0 143 -61 143 -146c0 -91 -63 -152 -164 -152z" />
    <glyph glyph-name="uni2086" unicode="&#x2086;" horiz-adv-x="380" 
d="M195 -35c-103 0 -169 67 -169 214c0 153 63 229 174 229c89 0 146 -48 153 -120h-95c-6 22 -29 35 -59 35c-49 0 -74 -37 -73 -109h4c15 26 50 44 92 44c81 0 135 -58 135 -143c0 -96 -66 -150 -162 -150zM197 50c38 0 62 27 62 67c0 41 -24 68 -62 68
c-39 0 -63 -28 -63 -68c0 -41 24 -67 63 -67z" />
    <glyph glyph-name="uni2087" unicode="&#x2087;" horiz-adv-x="381" 
d="M120 -30c0 163 57 269 112 347h-128v-72h-78v158h322v-71c-70 -100 -122 -189 -122 -362h-106z" />
    <glyph glyph-name="uni2088" unicode="&#x2088;" horiz-adv-x="379" 
d="M190 -34c-98 0 -165 45 -165 122c0 50 31 91 76 100v5c-45 11 -67 48 -67 94c0 71 57 121 156 121s156 -51 156 -122c0 -42 -21 -81 -67 -93v-5c46 -9 75 -49 75 -100c0 -76 -67 -122 -164 -122zM190 227c37 0 58 20 58 50c0 32 -23 50 -58 50c-36 0 -58 -19 -58 -50
c0 -32 22 -50 58 -50zM190 50c37 0 61 18 61 51c0 30 -21 50 -61 50c-41 0 -61 -20 -61 -50c0 -33 23 -51 61 -51z" />
    <glyph glyph-name="uni2089" unicode="&#x2089;" horiz-adv-x="381" 
d="M182 -35c-92 0 -146 51 -153 119h96c5 -21 28 -35 58 -35c50 0 73 39 72 110h-4c-15 -26 -47 -44 -92 -44c-81 0 -135 58 -135 143c0 95 66 150 161 150c105 0 170 -68 170 -215c0 -155 -63 -228 -173 -228zM184 188c39 0 63 28 63 69c0 40 -24 66 -63 66
c-38 0 -62 -27 -62 -68s24 -67 62 -67z" />
    <glyph glyph-name="zero.dnom" horiz-adv-x="352" 
d="M176 -4c-95 0 -151 76 -151 196c0 124 61 194 153 194c93 0 149 -76 149 -195c0 -125 -61 -195 -151 -195zM176 69c37 0 64 24 64 123c0 98 -27 121 -64 121s-64 -23 -64 -121c0 -99 27 -123 64 -123z" />
    <glyph glyph-name="one.dnom" horiz-adv-x="246" 
d="M109 0v248h-100v66h17c52 0 84 28 88 67h81v-381h-86z" />
    <glyph glyph-name="two.dnom" horiz-adv-x="336" 
d="M28 0v12c0 160 188 175 188 254c0 28 -20 46 -50 46c-33 0 -54 -21 -51 -58h-85c-3 82 55 132 141 132c81 0 135 -43 135 -116c0 -107 -127 -137 -168 -197c30 2 56 3 75 3h97v-76h-282z" />
    <glyph glyph-name="three.dnom" horiz-adv-x="341" 
d="M166 -5c-90 0 -144 50 -146 123h86c0 -29 24 -49 60 -49c35 0 59 20 59 49c0 27 -21 44 -52 44h-49v64h43c33 0 52 18 52 44s-22 42 -53 42c-33 0 -55 -18 -57 -48h-86c2 76 62 122 147 122c81 0 138 -40 138 -104c0 -38 -21 -71 -55 -84v-2c40 -12 60 -45 60 -87
c0 -68 -61 -114 -147 -114z" />
    <glyph glyph-name="four.dnom" horiz-adv-x="336" 
d="M191 0l-1 84h-181v65l161 232h107v-226h50v-71h-50v-84h-86zM94 155h97v140z" />
    <glyph glyph-name="five.dnom" horiz-adv-x="349" 
d="M173 -5c-87 0 -143 50 -144 121h87c2 -27 25 -45 58 -45c36 0 60 23 60 56s-24 58 -60 58c-28 0 -48 -12 -56 -33h-82l10 229h247v-75h-170l-3 -67l4 -2c14 13 40 21 68 21c79 0 129 -55 129 -129c0 -80 -56 -134 -148 -134z" />
    <glyph glyph-name="six.dnom" horiz-adv-x="346" 
d="M178 -5c-94 0 -153 59 -153 190c0 133 56 201 157 201c78 0 131 -40 138 -105h-85c-5 18 -26 31 -54 31c-50 0 -68 -38 -67 -97h3c14 23 44 38 84 38c73 0 122 -50 122 -125c0 -84 -59 -133 -145 -133zM179 71c35 0 58 23 58 59s-23 59 -57 59c-36 0 -59 -24 -59 -60
s22 -58 58 -58z" />
    <glyph glyph-name="seven.dnom" horiz-adv-x="309" 
d="M95 0c0 144 51 236 102 306h-119v-63h-69v138h291v-63c-64 -88 -112 -166 -112 -318h-93z" />
    <glyph glyph-name="eight.dnom" horiz-adv-x="346" 
d="M173 -3c-88 0 -148 40 -148 107c0 43 27 80 68 88v4c-36 9 -61 40 -61 83c0 63 52 107 141 107s141 -44 141 -107c0 -40 -21 -72 -61 -83v-4c41 -7 68 -43 68 -88c0 -67 -60 -107 -148 -107zM173 227c35 0 53 17 53 43c0 28 -20 44 -53 44s-53 -17 -53 -44
c0 -28 20 -43 53 -43zM173 71c34 0 57 15 57 44c0 27 -20 44 -57 44c-38 0 -57 -17 -57 -44c0 -28 22 -44 57 -44z" />
    <glyph glyph-name="nine.dnom" horiz-adv-x="346" 
d="M166 -5c-80 0 -130 42 -138 106h85c5 -18 26 -31 54 -31c46 0 68 34 67 96h-5c-13 -23 -44 -38 -83 -38c-73 0 -122 50 -122 126c0 83 59 132 146 132c93 0 152 -59 152 -190c0 -136 -57 -201 -156 -201zM168 192c36 0 58 25 58 60c0 36 -22 59 -58 59
c-35 0 -58 -24 -58 -60s23 -59 58 -59z" />
    <glyph glyph-name="zero.numr" horiz-adv-x="352" 
d="M176 336c-95 0 -151 76 -151 196c0 124 61 194 153 194c93 0 149 -76 149 -195c0 -125 -61 -195 -151 -195zM176 409c37 0 64 23 64 122s-27 122 -64 122s-64 -23 -64 -122s27 -122 64 -122z" />
    <glyph glyph-name="one.numr" horiz-adv-x="246" 
d="M109 340v248h-100v65h17c52 0 84 29 88 68h81v-381h-86z" />
    <glyph glyph-name="two.numr" horiz-adv-x="336" 
d="M28 340v11c0 161 188 176 188 255c0 28 -20 45 -50 45c-33 0 -54 -20 -51 -57h-85c-3 82 55 132 141 132c81 0 135 -43 135 -116c0 -107 -127 -137 -168 -198c30 3 56 4 75 4h97v-76h-282z" />
    <glyph glyph-name="three.numr" horiz-adv-x="341" 
d="M166 335c-90 0 -144 50 -146 123h86c0 -30 24 -49 60 -49c35 0 59 19 59 49c0 27 -21 44 -52 44h-49v64h43c33 0 52 18 52 44s-22 42 -53 42c-33 0 -55 -18 -57 -48h-86c2 76 62 122 147 122c81 0 138 -40 138 -104c0 -38 -21 -71 -55 -84v-3c40 -11 60 -45 60 -86
c0 -68 -61 -114 -147 -114z" />
    <glyph glyph-name="four.numr" horiz-adv-x="336" 
d="M191 340l-1 84h-181v65l161 232h107v-226h50v-71h-50v-84h-86zM94 495h97v140z" />
    <glyph glyph-name="five.numr" horiz-adv-x="349" 
d="M173 335c-87 0 -143 50 -144 121h87c2 -27 25 -46 58 -46c36 0 60 24 60 57s-24 58 -60 58c-28 0 -48 -13 -56 -34h-82l10 230h247v-75h-170l-3 -67l4 -2c14 12 40 20 68 20c79 0 129 -54 129 -128c0 -80 -56 -134 -148 -134z" />
    <glyph glyph-name="six.numr" horiz-adv-x="346" 
d="M178 335c-94 0 -153 59 -153 189c0 134 56 202 157 202c78 0 131 -40 138 -106h-85c-5 19 -26 31 -54 31c-50 0 -68 -37 -67 -96h3c14 23 44 38 84 38c73 0 122 -50 122 -126c0 -83 -59 -132 -145 -132zM179 410c35 0 58 24 58 60s-23 59 -57 59c-36 0 -59 -25 -59 -60
c0 -36 22 -59 58 -59z" />
    <glyph glyph-name="seven.numr" horiz-adv-x="309" 
d="M95 340c0 144 51 236 102 306h-119v-64h-69v139h291v-63c-64 -88 -112 -166 -112 -318h-93z" />
    <glyph glyph-name="eight.numr" horiz-adv-x="346" 
d="M173 336c-88 0 -148 40 -148 107c0 44 27 81 68 89v3c-36 10 -61 41 -61 84c0 63 52 107 141 107s141 -44 141 -108c0 -39 -21 -72 -61 -83v-3c41 -8 68 -43 68 -88c0 -67 -60 -108 -148 -108zM173 567c35 0 53 16 53 43c0 28 -20 44 -53 44s-53 -17 -53 -44
c0 -28 20 -43 53 -43zM173 411c34 0 57 15 57 44c0 27 -20 44 -57 44c-38 0 -57 -18 -57 -44c0 -29 22 -44 57 -44z" />
    <glyph glyph-name="nine.numr" horiz-adv-x="346" 
d="M166 335c-80 0 -130 42 -138 105h85c5 -17 26 -31 54 -31c46 0 68 34 67 97h-5c-13 -24 -44 -38 -83 -38c-73 0 -122 50 -122 125c0 84 59 133 146 133c93 0 152 -59 152 -190c0 -137 -57 -201 -156 -201zM168 532c36 0 58 24 58 60c0 35 -22 59 -58 59
c-35 0 -58 -24 -58 -60s23 -59 58 -59z" />
    <glyph glyph-name="uni2070" unicode="&#x2070;" horiz-adv-x="370" 
d="M185 322c-105 0 -167 87 -167 222c0 142 68 220 169 220c104 0 165 -86 165 -221c0 -142 -67 -221 -167 -221zM185 405c40 0 69 27 69 138c0 112 -29 139 -69 139c-39 0 -69 -27 -69 -139s30 -138 69 -138z" />
    <glyph glyph-name="uni00B9" unicode="&#xb9;" horiz-adv-x="271" 
d="M123 326v282h-111v75h19c55 0 93 30 98 76h92v-433h-98z" />
    <glyph glyph-name="uni00B2" unicode="&#xb2;" horiz-adv-x="361" 
d="M23 326v13c0 183 208 199 208 289c0 33 -23 52 -55 52c-33 0 -58 -21 -54 -65h-97c-3 91 61 149 156 149c91 0 151 -49 151 -131c0 -126 -145 -156 -183 -221h186v-86h-312z" />
    <glyph glyph-name="uni00B3" unicode="&#xb3;" horiz-adv-x="374" 
d="M180 320c-102 0 -159 58 -161 140h97c1 -33 25 -57 65 -57c38 0 63 22 63 57c0 32 -22 50 -54 50h-55v73h47c36 0 56 20 56 49c0 31 -23 48 -56 48c-37 0 -60 -20 -62 -54h-98c3 84 67 138 164 138c91 0 152 -46 152 -117c0 -47 -25 -82 -60 -95v-4c42 -12 67 -48 67 -98
c0 -78 -67 -130 -165 -130z" />
    <glyph glyph-name="uni2074" unicode="&#x2074;" horiz-adv-x="398" 
d="M221 326l-1 96h-199v73l177 264h120v-257h56l-1 -80h-55v-96h-97zM117 502h104v151z" />
    <glyph glyph-name="uni2075" unicode="&#x2075;" horiz-adv-x="379" 
d="M189 320c-96 0 -160 56 -161 137h98c3 -31 28 -51 63 -51c40 0 65 27 65 64c0 39 -25 67 -66 67c-31 0 -51 -15 -59 -38h-93l12 260h278v-86h-192l-4 -76l4 -2c17 15 48 23 76 23c89 0 143 -61 143 -146c0 -91 -63 -152 -164 -152z" />
    <glyph glyph-name="uni2076" unicode="&#x2076;" horiz-adv-x="380" 
d="M195 321c-103 0 -169 67 -169 214c0 153 63 229 174 229c89 0 146 -48 153 -120h-95c-6 22 -29 35 -59 35c-49 0 -74 -37 -73 -109h4c15 26 50 44 92 44c81 0 135 -58 135 -143c0 -96 -66 -150 -162 -150zM197 406c38 0 62 27 62 67c0 41 -24 68 -62 68
c-39 0 -63 -28 -63 -68c0 -41 24 -67 63 -67z" />
    <glyph glyph-name="uni2077" unicode="&#x2077;" horiz-adv-x="381" 
d="M120 326c0 163 57 269 112 347h-128v-72h-78v158h322v-71c-70 -100 -122 -189 -122 -362h-106z" />
    <glyph glyph-name="uni2078" unicode="&#x2078;" horiz-adv-x="379" 
d="M190 322c-98 0 -165 45 -165 122c0 50 31 91 76 100v5c-45 11 -67 48 -67 94c0 71 57 121 156 121s156 -51 156 -122c0 -42 -21 -81 -67 -93v-5c46 -9 75 -49 75 -100c0 -76 -67 -122 -164 -122zM190 583c37 0 58 20 58 50c0 32 -23 50 -58 50c-36 0 -58 -19 -58 -50
c0 -32 22 -50 58 -50zM190 406c37 0 61 18 61 51c0 30 -21 50 -61 50c-41 0 -61 -20 -61 -50c0 -33 23 -51 61 -51z" />
    <glyph glyph-name="uni2079" unicode="&#x2079;" horiz-adv-x="381" 
d="M182 321c-92 0 -146 51 -153 119h96c5 -21 28 -35 58 -35c50 0 73 39 72 110h-4c-15 -26 -47 -44 -92 -44c-81 0 -135 58 -135 143c0 95 66 150 161 150c105 0 170 -68 170 -215c0 -155 -63 -228 -173 -228zM184 544c39 0 63 28 63 69c0 40 -24 66 -63 66
c-38 0 -62 -27 -62 -68s24 -67 62 -67z" />
    <glyph glyph-name="fraction" unicode="&#x2044;" horiz-adv-x="160" 
d="M-223 0l496 721h110l-497 -721h-109z" />
    <glyph glyph-name="onehalf" unicode="&#xbd;" horiz-adv-x="741" 
d="M109 340v248h-100v65h17c52 0 84 29 88 68h81v-381h-86zM23 0l496 721h110l-497 -721h-109zM434 0v12c0 160 188 175 188 254c0 28 -20 46 -50 46c-33 0 -54 -21 -51 -58h-85c-3 82 55 132 141 132c81 0 135 -43 135 -116c0 -107 -127 -137 -168 -197c30 2 56 3 75 3h97
v-76h-282z" />
    <glyph glyph-name="onequarter" unicode="&#xbc;" horiz-adv-x="682" 
d="M109 340v248h-100v65h17c52 0 84 29 88 68h81v-381h-86zM23 0l496 721h110l-497 -721h-109zM537 0l-1 84h-181v65l161 232h107v-226h50v-71h-50v-84h-86zM440 155h97v140z" />
    <glyph glyph-name="threequarters" unicode="&#xbe;" horiz-adv-x="777" 
d="M166 335c-90 0 -144 50 -146 123h86c0 -30 24 -49 60 -49c35 0 59 19 59 49c0 27 -21 44 -52 44h-49v64h43c33 0 52 18 52 44s-22 42 -53 42c-33 0 -55 -18 -57 -48h-86c2 76 62 122 147 122c81 0 138 -40 138 -104c0 -38 -21 -71 -55 -84v-3c40 -11 60 -45 60 -86
c0 -68 -61 -114 -147 -114zM118 0l496 721h110l-497 -721h-109zM631 0l-1 84h-181v65l161 232h107v-226h50v-71h-50v-84h-86zM534 155h97v140z" />
    <glyph glyph-name="oneeighth" unicode="&#x215b;" horiz-adv-x="752" 
d="M109 340v248h-100v65h17c52 0 84 29 88 68h81v-381h-86zM23 0l496 721h110l-497 -721h-109zM579 -3c-88 0 -148 40 -148 107c0 43 27 80 68 88v4c-36 9 -61 40 -61 83c0 63 52 107 141 107s141 -44 141 -107c0 -40 -21 -72 -61 -83v-4c41 -7 68 -43 68 -88
c0 -67 -60 -107 -148 -107zM579 227c35 0 53 17 53 43c0 28 -20 44 -53 44s-53 -17 -53 -44c0 -28 20 -43 53 -43zM579 71c34 0 57 15 57 44c0 27 -20 44 -57 44c-38 0 -57 -17 -57 -44c0 -28 22 -44 57 -44z" />
    <glyph glyph-name="threeeighths" unicode="&#x215c;" horiz-adv-x="846" 
d="M166 335c-90 0 -144 50 -146 123h86c0 -30 24 -49 60 -49c35 0 59 19 59 49c0 27 -21 44 -52 44h-49v64h43c33 0 52 18 52 44s-22 42 -53 42c-33 0 -55 -18 -57 -48h-86c2 76 62 122 147 122c81 0 138 -40 138 -104c0 -38 -21 -71 -55 -84v-3c40 -11 60 -45 60 -86
c0 -68 -61 -114 -147 -114zM118 0l496 721h110l-497 -721h-109zM673 -3c-88 0 -148 40 -148 107c0 43 27 80 68 88v4c-36 9 -61 40 -61 83c0 63 52 107 141 107s141 -44 141 -107c0 -40 -21 -72 -61 -83v-4c41 -7 68 -43 68 -88c0 -67 -60 -107 -148 -107zM673 227
c35 0 53 17 53 43c0 28 -20 44 -53 44s-53 -17 -53 -44c0 -28 20 -43 53 -43zM673 71c34 0 57 15 57 44c0 27 -20 44 -57 44c-38 0 -57 -17 -57 -44c0 -28 22 -44 57 -44z" />
    <glyph glyph-name="fiveeighths" unicode="&#x215d;" horiz-adv-x="855" 
d="M173 335c-87 0 -143 50 -144 121h87c2 -27 25 -46 58 -46c36 0 60 24 60 57s-24 58 -60 58c-28 0 -48 -13 -56 -34h-82l10 230h247v-75h-170l-3 -67l4 -2c14 12 40 20 68 20c79 0 129 -54 129 -128c0 -80 -56 -134 -148 -134zM126 0l496 721h110l-497 -721h-109zM682 -3
c-88 0 -148 40 -148 107c0 43 27 80 68 88v4c-36 9 -61 40 -61 83c0 63 52 107 141 107s141 -44 141 -107c0 -40 -21 -72 -61 -83v-4c41 -7 68 -43 68 -88c0 -67 -60 -107 -148 -107zM682 227c35 0 53 17 53 43c0 28 -20 44 -53 44s-53 -17 -53 -44c0 -28 20 -43 53 -43z
M682 71c34 0 57 15 57 44c0 27 -20 44 -57 44c-38 0 -57 -17 -57 -44c0 -28 22 -44 57 -44z" />
    <glyph glyph-name="seveneighths" unicode="&#x215e;" horiz-adv-x="764" 
d="M95 340c0 144 51 236 102 306h-119v-64h-69v139h291v-63c-64 -88 -112 -166 -112 -318h-93zM36 0l496 721h110l-497 -721h-109zM592 -3c-88 0 -148 40 -148 107c0 43 27 80 68 88v4c-36 9 -61 40 -61 83c0 63 52 107 141 107s141 -44 141 -107c0 -40 -21 -72 -61 -83v-4
c41 -7 68 -43 68 -88c0 -67 -60 -107 -148 -107zM592 227c35 0 53 17 53 43c0 28 -20 44 -53 44s-53 -17 -53 -44c0 -28 20 -43 53 -43zM592 71c34 0 57 15 57 44c0 27 -20 44 -57 44c-38 0 -57 -17 -57 -44c0 -28 22 -44 57 -44z" />
    <glyph glyph-name="period" unicode="." horiz-adv-x="241" 
d="M50 0v135h141v-135h-141z" />
    <glyph glyph-name="comma" unicode="," horiz-adv-x="231" 
d="M25 -168v73l19 1c44 0 60 22 60 59v35h-64v135h141v-177c0 -93 -46 -125 -119 -126h-37z" />
    <glyph glyph-name="colon" unicode=":" horiz-adv-x="241" 
d="M50 402v134h141v-134h-141zM50 0v135h141v-135h-141z" />
    <glyph glyph-name="semicolon" unicode=";" horiz-adv-x="231" 
d="M40 402v134h141v-134h-141zM25 -168v73l19 1c44 0 60 22 60 59v35h-64v135h141v-177c0 -93 -46 -125 -119 -126h-37z" />
    <glyph glyph-name="ellipsis" unicode="&#x2026;" horiz-adv-x="723" 
d="M50 0v135h141v-135h-141zM291 0v135h141v-135h-141zM532 0v135h141v-135h-141z" />
    <glyph glyph-name="exclam" unicode="!" horiz-adv-x="281" 
d="M103 218l-37 271v240h150v-240l-37 -271h-76zM74 0v137h133v-137h-133z" />
    <glyph glyph-name="exclamdown" unicode="&#xa1;" horiz-adv-x="281" 
d="M207 537v-137h-133v137h133zM178 319l37 -271v-240h-150v240l37 271h76z" />
    <glyph glyph-name="question" unicode="?" horiz-adv-x="569" 
d="M226 211v19c0 134 155 186 155 294c0 59 -39 90 -97 90c-66 0 -107 -41 -107 -100h-143c-1 134 101 224 257 224c161 0 241 -80 241 -199c0 -159 -174 -215 -174 -318v-10h-132zM221 0v135h142v-135h-142z" />
    <glyph glyph-name="questiondown" unicode="&#xbf;" horiz-adv-x="569" 
d="M345 536v-135h-142v135h142zM340 325v-19c0 -134 -155 -186 -155 -294c0 -59 39 -90 97 -90c66 0 107 41 107 100h143c1 -134 -101 -224 -257 -224c-161 0 -241 80 -241 199c0 159 174 215 174 318v10h132z" />
    <glyph glyph-name="periodcentered" unicode="&#xb7;" horiz-adv-x="280" 
d="M50 277c0 51 38 89 90 89c55 0 90 -38 90 -89s-35 -89 -90 -89c-52 0 -90 38 -90 89z" />
    <glyph glyph-name="bullet" unicode="&#x2022;" horiz-adv-x="347" 
d="M46 277c0 73 54 127 128 127c77 0 128 -54 128 -127c0 -72 -51 -127 -128 -127c-74 0 -128 55 -128 127z" />
    <glyph glyph-name="asterisk" unicode="*" horiz-adv-x="325" 
d="M132 447v47l14 63l-49 -43l-42 -23l-30 52l41 23l61 22l-61 21l-41 23l30 52l42 -23l49 -42l-14 63v47h61v-47l-14 -63l50 42l42 23l29 -52l-41 -23l-61 -21l61 -22l41 -23l-29 -52l-42 23l-50 43l14 -63v-47h-61z" />
    <glyph glyph-name="numbersign" unicode="#" horiz-adv-x="685" 
d="M135 0v174h-101v118h101v153h-101v118h101v167h131v-167h156v167h130v-167h98v-118h-98v-153h98v-118h-98v-174h-130v174h-156v-174h-131zM266 292h156v153h-156v-153z" />
    <glyph glyph-name="slash" unicode="/" horiz-adv-x="520" 
d="M30 -82l298 811h141l-299 -811h-140z" />
    <glyph glyph-name="backslash" unicode="\" horiz-adv-x="520" 
d="M350 -82l-299 811h141l298 -811h-140z" />
    <glyph glyph-name="parenleft" unicode="(" horiz-adv-x="379" 
d="M222 -167c-110 105 -177 295 -177 480s67 375 177 480h127c-99 -108 -162 -296 -162 -480c0 -187 65 -374 162 -480h-127z" />
    <glyph glyph-name="parenright" unicode=")" horiz-adv-x="379" 
d="M157 793c110 -105 177 -295 177 -480s-67 -375 -177 -480h-127c99 108 162 296 162 480c0 187 -65 374 -162 480h127z" />
    <glyph glyph-name="braceleft" unicode="{" horiz-adv-x="408" 
d="M231 -167c-70 0 -103 44 -103 102v238c0 50 -27 79 -63 79h-25v110h25c38 0 63 30 63 80v249c0 58 33 102 103 102h168v-112h-133v-244c0 -79 -36 -115 -84 -124v-3c59 -19 84 -67 84 -128v-238h133v-111h-168z" />
    <glyph glyph-name="braceright" unicode="}" horiz-adv-x="408" 
d="M177 793c70 0 103 -44 103 -102v-238c0 -50 27 -79 63 -79h25v-110h-25c-38 0 -63 -30 -63 -80v-249c0 -58 -33 -102 -103 -102h-168v112h133v244c0 79 36 115 84 124v3c-59 19 -84 67 -84 128v238h-133v111h168z" />
    <glyph glyph-name="bracketleft" unicode="[" horiz-adv-x="358" 
d="M79 -167v960h271v-112h-134v-737h134v-111h-271z" />
    <glyph glyph-name="bracketright" unicode="]" horiz-adv-x="358" 
d="M279 793v-960h-271v112h134v737h-134v111h271z" />
    <glyph glyph-name="parenleft.case" horiz-adv-x="366" 
d="M210 -63c-103 94 -165 263 -165 428s62 334 165 428h126c-91 -96 -149 -264 -149 -428c0 -167 60 -333 149 -428h-126z" />
    <glyph glyph-name="parenright.case" horiz-adv-x="366" 
d="M30 -63c89 95 149 261 149 428c0 164 -58 332 -149 428h126c102 -94 165 -263 165 -428s-63 -334 -165 -428h-126z" />
    <glyph glyph-name="braceleft.case" horiz-adv-x="408" 
d="M231 -63c-70 0 -103 44 -103 102v192c0 50 -27 79 -63 79h-25v110h25c38 0 63 30 63 80v191c0 58 33 102 103 102h168v-105h-133v-193c0 -79 -36 -115 -84 -124v-3c59 -19 84 -67 84 -128v-199h133v-104h-168z" />
    <glyph glyph-name="braceright.case" horiz-adv-x="408" 
d="M9 -63v104h133v199c0 61 24 109 84 128v3c-48 9 -84 45 -84 124v193h-133v105h167c70 0 103 -44 103 -102v-191c0 -50 26 -80 63 -80h26v-110h-26c-36 0 -63 -29 -63 -79v-192c0 -58 -33 -102 -103 -102h-167z" />
    <glyph glyph-name="bracketleft.case" horiz-adv-x="358" 
d="M79 -63v856h271v-105h-134v-647h134v-104h-271z" />
    <glyph glyph-name="bracketright.case" horiz-adv-x="358" 
d="M9 -63v104h133v647h-133v105h270v-856h-270z" />
    <glyph glyph-name="hyphen" unicode="-" horiz-adv-x="387" 
d="M30 206v124h327v-124h-327z" />
    <glyph glyph-name="endash" unicode="&#x2013;" horiz-adv-x="519" 
d="M30 206v124h459v-124h-459z" />
    <glyph glyph-name="emdash" unicode="&#x2014;" horiz-adv-x="690" 
d="M30 206v124h630v-124h-630z" />
    <glyph glyph-name="underscore" unicode="_" horiz-adv-x="383" 
d="M0 -124v124h383v-124h-383z" />
    <glyph glyph-name="quotesinglbase" unicode="&#x201a;" horiz-adv-x="231" 
d="M25 -168v73l19 1c44 0 60 22 60 59v35h-64v135h141v-177c0 -93 -46 -125 -119 -126h-37z" />
    <glyph glyph-name="quotedblbase" unicode="&#x201e;" horiz-adv-x="449" 
d="M25 -168v73l19 1c44 0 60 22 60 59v35h-64v135h141v-177c0 -93 -46 -125 -119 -126h-37zM243 -168v73l19 1c44 0 60 22 60 59v35h-64v135h141v-177c0 -93 -46 -125 -119 -126h-37z" />
    <glyph glyph-name="quotedblleft" unicode="&#x201c;" horiz-adv-x="449" 
d="M424 729v-73l-19 -1c-44 0 -60 -22 -60 -59v-35h64v-135h-141v177c0 93 46 125 119 126h37zM206 729v-73l-19 -1c-44 0 -60 -22 -60 -59v-35h64v-135h-141v177c0 93 46 125 119 126h37z" />
    <glyph glyph-name="quotedblright" unicode="&#x201d;" horiz-adv-x="449" 
d="M25 426v73l19 1c44 0 60 22 60 59v35h-64v135h141v-177c0 -93 -46 -125 -119 -126h-37zM243 426v73l19 1c44 0 60 22 60 59v35h-64v135h141v-177c0 -93 -46 -125 -119 -126h-37z" />
    <glyph glyph-name="quoteleft" unicode="&#x2018;" horiz-adv-x="231" 
d="M206 729v-73l-19 -1c-44 0 -60 -22 -60 -59v-35h64v-135h-141v177c0 93 46 125 119 126h37z" />
    <glyph glyph-name="quoteright" unicode="&#x2019;" horiz-adv-x="231" 
d="M25 426v73l19 1c44 0 60 22 60 59v35h-64v135h141v-177c0 -93 -46 -125 -119 -126h-37z" />
    <glyph glyph-name="guillemotleft" unicode="&#xab;" horiz-adv-x="531" 
d="M154 0l-127 269l127 267h126l-117 -267l117 -269h-126zM379 0l-126 269l126 267h128l-119 -267l119 -269h-128z" />
    <glyph glyph-name="guillemotright" unicode="&#xbb;" horiz-adv-x="531" 
d="M377 536l127 -269l-127 -267h-126l117 267l-117 269h126zM152 536l126 -269l-126 -267h-128l119 267l-119 269h128z" />
    <glyph glyph-name="guilsinglleft" unicode="&#x2039;" horiz-adv-x="304" 
d="M154 0l-127 269l127 267h126l-117 -267l117 -269h-126z" />
    <glyph glyph-name="guilsinglright" unicode="&#x203a;" horiz-adv-x="304" 
d="M150 536l127 -269l-127 -267h-126l117 267l-117 269h126z" />
    <glyph glyph-name="quotedbl" unicode="&#x22;" horiz-adv-x="483" 
d="M163 382h-65l-33 187v160h131v-160zM386 382h-65l-34 187v160h131v-160z" />
    <glyph glyph-name="quotesingle" unicode="'" horiz-adv-x="261" 
d="M163 382h-65l-33 187v160h131v-160z" />
    <glyph glyph-name="space" unicode=" " horiz-adv-x="213" 
 />
    <glyph glyph-name="uni00A0" unicode="&#xa0;" horiz-adv-x="213" 
 />
    <glyph glyph-name="CR" unicode="&#xd;" horiz-adv-x="186" 
 />
    <glyph glyph-name="Euro" unicode="&#x20ac;" horiz-adv-x="832" 
d="M35 246v78h57c-1 13 -2 27 -2 41s0 27 1 40h-56v76h68c41 165 173 257 354 257c186 0 320 -104 340 -260h-161c-18 73 -84 124 -179 124c-89 0 -154 -40 -185 -121h219l-11 -76h-224c-1 -13 -2 -26 -2 -40s1 -28 2 -41h212l-11 -78h-184c31 -80 96 -119 184 -119
c91 0 163 50 179 126h161c-18 -158 -157 -262 -340 -262c-181 0 -312 91 -353 255h-69z" />
    <glyph glyph-name="uni20BF" unicode="&#x20bf;" horiz-adv-x="699" 
d="M79 0v729h121v86h87v-86h84v86h87v-88c124 -12 186 -83 186 -185c0 -76 -40 -139 -110 -159v-8c84 -17 130 -84 130 -166c0 -111 -70 -189 -206 -206v-88h-88v85h-83v-85h-88v85h-120zM230 430h150c67 0 100 36 100 89c0 59 -41 91 -104 91h-146v-180zM230 120h152
c79 0 116 38 116 99s-37 96 -111 96h-157v-195z" />
    <glyph glyph-name="cent" unicode="&#xa2;" horiz-adv-x="585" 
d="M245 -85v81c-129 23 -210 126 -210 272s80 249 210 273v78h97v-75c120 -13 202 -93 207 -203h-143c-10 56 -50 85 -103 85c-78 0 -119 -62 -119 -158c0 -105 47 -157 118 -157c62 0 100 35 106 87h143c-6 -114 -90 -191 -209 -205v-78h-97z" />
    <glyph glyph-name="currency" unicode="&#xa4;" horiz-adv-x="658" 
d="M131 71l-82 82l96 97c-18 30 -26 66 -26 98c0 39 10 74 27 101l-97 96l82 83l103 -103c27 13 63 20 95 20c30 0 64 -6 95 -20l102 103l82 -83l-96 -96c18 -30 27 -63 27 -101c0 -34 -9 -69 -27 -98l97 -97l-82 -82l-102 101c-28 -13 -64 -20 -96 -20c-38 0 -69 8 -97 20z
M329 265c49 0 87 34 87 83c0 50 -38 85 -87 85s-87 -35 -87 -85c0 -49 38 -83 87 -83z" />
    <glyph glyph-name="dollar" unicode="$" horiz-adv-x="651" 
d="M280 -85v78c-161 14 -246 105 -246 236h157c1 -73 42 -120 139 -120c74 0 123 28 123 88c0 71 -39 87 -160 107c-148 26 -245 77 -245 212c0 125 87 207 232 220v79h89v-79c138 -15 223 -98 224 -215h-156c-3 71 -54 101 -118 101c-68 0 -110 -34 -110 -86
c0 -66 44 -76 163 -97c120 -20 242 -51 242 -228c0 -119 -83 -205 -245 -218v-78h-89z" />
    <glyph glyph-name="uni20BA" unicode="&#x20ba;" horiz-adv-x="657" 
d="M92 0v260l-82 -32v112l82 33v82l-82 -33v111l82 34v162h147v-105l144 60v-112l-144 -61v-81l144 60v-112l-144 -60v-176c139 0 219 81 232 203h152c-15 -224 -174 -345 -410 -345h-121z" />
    <glyph glyph-name="uni20B9" unicode="&#x20b9;" horiz-adv-x="626" 
d="M384 0c-6 5 -14 19 -20 46l-23 122c-17 84 -55 99 -119 99h-143v110h168c87 0 125 28 135 77h-303v79h303c-10 52 -51 77 -137 77h-166v119h546v-93h-145v-6c32 -15 58 -52 63 -90h82v-93h-83c-16 -68 -71 -113 -148 -126v-8c63 -15 98 -51 111 -129l24 -135
c3 -19 11 -30 18 -34v-15h-163z" />
    <glyph glyph-name="uni20AA" unicode="&#x20aa;" horiz-adv-x="822" 
d="M398 0c-74 0 -125 26 -125 128v421h104v-431h240v611h126v-729h-345zM79 0v729h345c75 0 125 -26 125 -128v-420h-104v430h-240v-611h-126z" />
    <glyph glyph-name="sterling" unicode="&#xa3;" horiz-adv-x="641" 
d="M23 0v126h78v175h-78v111h78v94c0 151 98 231 246 231c152 0 240 -85 240 -219v-25h-141v17c0 64 -38 97 -97 97c-64 0 -97 -40 -97 -101v-94h174v-111h-174v-175h224v81h126v-207h-579z" />
    <glyph glyph-name="yen" unicode="&#xa5;" horiz-adv-x="650" 
d="M251 0v105h-179v103h179v78h-179v104h116l-187 339h161l158 -319h7l161 319h160l-184 -339h113v-104h-177v-78h177v-103h-177v-105h-149z" />
    <glyph glyph-name="plus" unicode="+" horiz-adv-x="544" 
d="M213 123v180h-178v115h178v180h119v-180h177v-115h-177v-180h-119z" />
    <glyph glyph-name="minus" unicode="&#x2212;" horiz-adv-x="662" 
d="M94 303v115h475v-115h-475z" />
    <glyph glyph-name="multiply" unicode="&#xd7;" horiz-adv-x="583" 
d="M149 140l-79 79l143 142l-143 142l79 79l143 -142l141 142l79 -79l-141 -142l141 -142l-79 -79l-141 142z" />
    <glyph glyph-name="divide" unicode="&#xf7;" horiz-adv-x="661" 
d="M265 486v113h131v-113h-131zM79 303v115h503v-115h-503zM265 123v112h131v-112h-131z" />
    <glyph glyph-name="equal" unicode="=" horiz-adv-x="662" 
d="M94 420v116h475v-116h-475zM94 186v115h475v-115h-475z" />
    <glyph glyph-name="notequal" unicode="&#x2260;" horiz-adv-x="621" 
d="M126 71l52 115h-105v115h155l55 119h-210v116h260l51 114h112l-52 -114h104v-116h-153l-55 -119h208v-115h-258l-52 -115h-112z" />
    <glyph glyph-name="greater" unicode="&#x3e;" horiz-adv-x="687" 
d="M94 93v147l353 114v11l-353 117v146l499 -186v-165z" />
    <glyph glyph-name="less" unicode="&#x3c;" horiz-adv-x="687" 
d="M593 93l-499 184v165l499 186v-146l-352 -117v-11l352 -114v-147z" />
    <glyph glyph-name="greaterequal" unicode="&#x2265;" horiz-adv-x="685" 
d="M92 151v132l355 110v8l-355 106v132l501 -161v-162zM92 0v103h501v-103h-501z" />
    <glyph glyph-name="lessequal" unicode="&#x2264;" horiz-adv-x="685" 
d="M593 151l-501 165v162l501 161v-132l-355 -106v-8l355 -110v-132zM92 0v103h501v-103h-501z" />
    <glyph glyph-name="plusminus" unicode="&#xb1;" horiz-adv-x="632" 
d="M257 185v152h-192v116h192v152h119v-152h192v-116h-192v-152h-119zM65 0v103h503v-103h-503z" />
    <glyph glyph-name="approxequal" unicode="&#x2248;" horiz-adv-x="661" 
d="M423 222c-88 0 -135 60 -186 60c-37 0 -50 -32 -47 -59h-73c-3 49 4 86 17 112h-17c-9 130 56 172 116 172c76 0 119 -59 181 -59c39 0 58 26 58 61h73c3 -48 -4 -85 -18 -113h18c8 -120 -48 -174 -122 -174zM233 394c9 0 17 -1 25 -2c-7 2 -14 3 -21 3c-4 0 -8 0 -11 -1
h7z" />
    <glyph glyph-name="logicalnot" unicode="&#xac;" horiz-adv-x="671" 
d="M461 143v162h-363v114h475v-276h-112z" />
    <glyph glyph-name="asciitilde" unicode="~" horiz-adv-x="620" 
d="M95 278c-9 124 51 173 117 173c76 0 119 -59 182 -59c38 0 57 25 58 60h73c9 -135 -62 -176 -123 -176c-87 0 -135 62 -186 62c-35 0 -50 -32 -47 -60h-74z" />
    <glyph glyph-name="asciicircum" unicode="^" horiz-adv-x="480" 
d="M21 470l142 259h153l142 -259h-136l-82 146l-84 -146h-135z" />
    <glyph glyph-name="infinity" unicode="&#x221e;" horiz-adv-x="914" 
d="M253 134c-124 0 -218 93 -218 229c0 132 92 232 219 232c92 0 159 -61 202 -132c45 71 110 132 204 132c127 0 218 -101 218 -232c0 -134 -93 -229 -217 -229c-93 0 -158 54 -205 129c-44 -74 -112 -129 -203 -129zM262 270c53 0 93 41 127 96c-33 53 -73 94 -127 94
s-89 -42 -89 -95c0 -54 34 -95 89 -95zM651 270c54 0 88 43 88 95c0 53 -34 95 -88 95s-93 -42 -126 -94c34 -56 72 -96 126 -96z" />
    <glyph glyph-name="emptyset" unicode="&#x2205;" horiz-adv-x="767" 
d="M384 -3c-204 0 -361 151 -361 369c0 215 157 366 361 366c203 0 361 -152 361 -366c0 -218 -158 -369 -361 -369zM112 236l514 314c-55 77 -142 123 -242 123c-165 0 -298 -127 -298 -307c0 -47 10 -92 26 -130zM384 56c166 0 298 129 298 310c0 49 -10 94 -27 134
l-516 -315c54 -79 144 -129 245 -129z" />
    <glyph glyph-name="integral" unicode="&#x222b;" horiz-adv-x="441" 
d="M9 -151v118h138v633c0 82 49 129 126 129h159v-119h-138v-633c0 -80 -48 -128 -127 -128h-158z" />
    <glyph glyph-name="product" unicode="&#x220f;" horiz-adv-x="792" 
d="M79 -151v880h635v-880h-156v740h-323v-740h-156z" />
    <glyph glyph-name="summation" unicode="&#x2211;" horiz-adv-x="662" 
d="M79 -151v162l227 268v20l-227 268v162h504v-152h-180l-130 2v-8l241 -282l-241 -282v-8l130 2h180v-152h-504z" />
    <glyph glyph-name="radical" unicode="&#x221a;" horiz-adv-x="736" 
d="M244 -151l-145 470h-90v139h212l123 -450h6l212 721h166l-278 -880h-206z" />
    <glyph glyph-name="percent" unicode="%" horiz-adv-x="876" 
d="M156 0l463 729h101l-464 -729h-100zM198 340c-97 0 -153 77 -153 194c0 121 62 192 155 192c96 0 152 -78 152 -194c0 -123 -63 -192 -154 -192zM198 422c31 0 56 15 56 111c0 95 -25 110 -56 110c-30 0 -55 -15 -55 -110s25 -111 55 -111zM676 -4
c-96 0 -152 79 -152 195c0 122 62 192 155 192c96 0 152 -78 152 -194c0 -123 -62 -193 -155 -193zM678 79c30 0 55 15 55 111c0 95 -25 110 -55 110c-31 0 -56 -14 -56 -110s25 -111 56 -111z" />
    <glyph glyph-name="perthousand" unicode="&#x2030;" horiz-adv-x="1223" 
d="M156 0l463 729h101l-464 -729h-100zM198 340c-97 0 -153 77 -153 194c0 121 62 192 155 192c96 0 152 -78 152 -194c0 -123 -63 -192 -154 -192zM198 422c31 0 56 15 56 111c0 95 -25 110 -56 110c-30 0 -55 -15 -55 -110s25 -111 55 -111zM676 -4
c-96 0 -152 79 -152 195c0 122 62 192 155 192c96 0 152 -78 152 -194c0 -123 -62 -193 -155 -193zM1024 -4c-97 0 -153 79 -153 195c0 122 62 192 155 192c96 0 152 -78 152 -194c0 -123 -62 -193 -154 -193zM678 79c30 0 55 15 55 111c0 95 -25 110 -55 110
c-31 0 -56 -14 -56 -110s25 -111 56 -111zM1025 79c30 0 55 15 55 111c0 95 -25 110 -55 110c-31 0 -56 -14 -56 -110s25 -111 56 -111z" />
    <glyph glyph-name="arrowup" unicode="&#x2191;" horiz-adv-x="545" 
d="M209 80v397l-153 -104v131l217 145l216 -145v-131l-153 104v-397h-127z" />
    <glyph glyph-name="arrowright" unicode="&#x2192;" horiz-adv-x="746" 
d="M92 429h396l-103 153h130l146 -217l-146 -217h-130l103 153h-396v128z" />
    <glyph glyph-name="arrowdown" unicode="&#x2193;" horiz-adv-x="547" 
d="M212 649h127v-397l153 104v-131l-217 -145l-216 145v131l153 -104v397z" />
    <glyph glyph-name="arrowleft" unicode="&#x2190;" horiz-adv-x="746" 
d="M654 429v-128h-396l103 -153h-130l-146 217l146 217h130l-103 -153h396z" />
    <glyph glyph-name="arrowboth" unicode="&#x2194;" horiz-adv-x="830" 
d="M182 148l-145 217l145 217h131l-103 -153h411l-104 153h131l145 -217l-145 -217h-131l104 153h-411l103 -153h-131z" />
    <glyph glyph-name="uni2639" unicode="&#x2639;" horiz-adv-x="800" 
d="M401 -10c-218 0 -378 152 -378 377c0 220 160 372 378 372c217 0 377 -153 377 -372c0 -225 -160 -377 -377 -377zM401 50c185 0 313 127 313 317c0 186 -128 312 -313 312c-186 0 -314 -126 -314 -312c0 -190 128 -317 314 -317zM313 391c-36 0 -54 29 -54 68
c0 44 21 67 54 67c35 0 53 -29 53 -67c0 -46 -22 -68 -53 -68zM491 391c-36 0 -55 29 -55 68c0 44 24 67 55 67c36 0 55 -30 55 -67c0 -46 -23 -68 -55 -68zM175 181c30 88 118 139 225 139c108 0 196 -51 226 -139h-55c-29 56 -95 90 -171 90c-77 0 -142 -36 -171 -90h-54z
" />
    <glyph glyph-name="smileface" unicode="&#x263a;" horiz-adv-x="800" 
d="M401 -10c-218 0 -378 152 -378 377c0 220 160 372 378 372c217 0 377 -153 377 -372c0 -225 -160 -377 -377 -377zM401 50c185 0 313 127 313 317c0 186 -128 312 -313 312c-186 0 -314 -126 -314 -312c0 -190 128 -317 314 -317zM313 391c-36 0 -54 29 -54 68
c0 44 21 67 54 67c35 0 53 -29 53 -67c0 -46 -22 -68 -53 -68zM491 391c-36 0 -55 29 -55 68c0 44 24 67 55 67c36 0 55 -30 55 -67c0 -46 -23 -68 -55 -68zM400 119c-123 0 -216 74 -235 182h-28v29h121v-29h-34c16 -76 86 -126 176 -126c91 0 160 50 177 126h-34v29h121
v-29h-28c-19 -108 -113 -182 -236 -182z" />
    <glyph glyph-name="uni2713" unicode="&#x2713;" horiz-adv-x="938" 
d="M333 87l-228 278l91 83l148 -181l406 371l82 -97z" />
    <glyph glyph-name="at" unicode="@" horiz-adv-x="884" 
d="M454 -101c-262 0 -419 167 -419 418c0 249 171 421 417 421c231 0 396 -149 396 -372c0 -160 -82 -263 -190 -263c-62 0 -105 32 -119 81h-8c-17 -46 -60 -76 -116 -76c-93 0 -153 71 -153 189c0 138 69 217 171 217c47 0 86 -27 102 -65h6l12 55h66l-16 -206
c-6 -75 16 -104 54 -104c57 0 92 65 92 165c0 188 -127 287 -294 287c-205 0 -315 -141 -315 -324c0 -212 124 -331 321 -331c87 0 157 25 206 63l38 -76c-51 -46 -151 -79 -251 -79zM432 195c54 0 83 48 87 121c-4 76 -32 112 -77 112c-57 0 -83 -52 -83 -126
c0 -69 29 -107 73 -107z" />
    <glyph glyph-name="ampersand" unicode="&#x26;" horiz-adv-x="735" 
d="M271 -10c-130 0 -227 71 -227 198c0 85 58 164 154 204c-51 50 -81 104 -81 166c0 107 87 181 212 181c114 0 194 -73 194 -175c0 -83 -56 -147 -138 -180v-5l118 -130c20 36 32 92 33 141h184v-110h-85c-8 -42 -27 -90 -49 -122l146 -158h-177l-67 74
c-49 -56 -132 -84 -217 -84zM311 454h6c49 21 79 56 79 98c0 40 -27 69 -67 69c-44 0 -72 -32 -72 -70c0 -36 24 -68 54 -97zM191 206c0 -61 44 -95 104 -95c49 0 89 18 113 51l-138 152c-48 -21 -79 -59 -79 -108z" />
    <glyph glyph-name="paragraph" unicode="&#xb6;" horiz-adv-x="774" 
d="M220 -151v508c-134 -4 -211 70 -211 183c0 121 78 189 211 189h475v-125h-78v-755h-138v755h-121v-755h-138z" />
    <glyph glyph-name="copyright" unicode="&#xa9;" horiz-adv-x="822" 
d="M23 364c0 224 161 374 388 374c228 0 389 -150 389 -374c0 -223 -161 -373 -389 -373c-227 0 -388 150 -388 373zM88 364c0 -188 130 -314 323 -314c194 0 324 126 324 314c0 189 -130 315 -324 315c-193 0 -323 -126 -323 -315zM214 364c0 123 81 203 206 203
c107 0 179 -64 183 -150h-105c-8 42 -42 61 -81 61c-61 0 -93 -45 -93 -114c0 -76 37 -113 92 -113c47 0 78 24 83 63h105c-4 -91 -80 -152 -188 -152c-122 0 -202 80 -202 202z" />
    <glyph glyph-name="registered" unicode="&#xae;" horiz-adv-x="614" 
d="M306 214c-148 0 -264 107 -264 262c0 156 116 262 264 262c149 0 266 -106 266 -262c0 -155 -117 -262 -266 -262zM306 260c122 0 218 88 218 217s-97 218 -218 218c-120 0 -217 -89 -217 -219c0 -129 97 -216 217 -216zM204 364v240h119c49 0 101 -13 101 -75
c0 -30 -18 -53 -44 -60v-1c27 -4 39 -22 39 -51v-25c0 -8 0 -19 3 -28h-71c-4 6 -4 13 -4 29v17c0 20 -8 31 -33 31h-40v-77h-70zM312 550h-38v-62h38c26 0 38 12 38 31c0 21 -15 31 -38 31z" />
    <glyph glyph-name="uni2117" unicode="&#x2117;" horiz-adv-x="822" 
d="M411 -9c-227 0 -388 150 -388 373c0 224 161 374 388 374c228 0 389 -150 389 -374c0 -223 -161 -373 -389 -373zM411 50c194 0 324 126 324 314c0 189 -130 315 -324 315c-193 0 -323 -126 -323 -315c0 -188 130 -314 323 -314zM266 166v397h189c102 0 157 -47 157 -131
c0 -78 -50 -132 -158 -132h-80v-134h-108zM428 488h-54v-119h54c43 0 75 13 75 61c0 45 -33 58 -75 58z" />
    <glyph glyph-name="trademark" unicode="&#x2122;" horiz-adv-x="771" 
d="M329 416l-1 313h128l73 -196h3l71 196h128v-313h-89l-1 109l2 92h-3l-75 -201h-71l-75 201h-2l1 -92v-109h-89zM95 416v232h-90v81h278v-81h-93v-232h-95z" />
    <glyph glyph-name="degree" unicode="&#xb0;" horiz-adv-x="430" 
d="M215 402c-104 0 -181 68 -181 169s77 167 181 167s181 -66 181 -167s-77 -169 -181 -169zM215 498c42 0 75 28 75 73c0 44 -33 72 -75 72c-41 0 -74 -28 -74 -72c0 -45 33 -73 74 -73z" />
    <glyph glyph-name="bar" unicode="|" horiz-adv-x="293" 
d="M80 -67v796h133v-796h-133z" />
    <glyph glyph-name="brokenbar" unicode="&#xa6;" horiz-adv-x="293" 
d="M80 391v338h133v-338h-133zM80 -67v338h133v-338h-133z" />
    <glyph glyph-name="uni0308" unicode="&#x308;" horiz-adv-x="0" 
d="M40 752v131h126v-131h-126zM244 752v131h127v-131h-127z" />
    <glyph glyph-name="uni0307" unicode="&#x307;" horiz-adv-x="0" 
d="M40 752v138h147v-138h-147z" />
    <glyph glyph-name="gravecomb" unicode="&#x300;" horiz-adv-x="0" 
d="M132 738l-92 145h146l57 -145h-111z" />
    <glyph glyph-name="acutecomb" unicode="&#x301;" horiz-adv-x="0" 
d="M40 738l56 145h147l-92 -145h-111z" />
    <glyph glyph-name="uni0302" unicode="&#x302;" horiz-adv-x="0" 
d="M40 738l114 145h139l114 -145h-125l-59 77l-58 -77h-125z" />
    <glyph glyph-name="uni030A" unicode="&#x30a;" horiz-adv-x="0" 
d="M159 733c-72 0 -119 45 -119 111c0 67 47 112 119 112c71 0 118 -45 118 -112c0 -66 -47 -111 -118 -111zM159 800c26 0 44 18 44 44c0 27 -18 45 -44 45c-27 0 -44 -18 -44 -45c0 -26 17 -44 44 -44z" />
    <glyph glyph-name="tildecomb" unicode="&#x303;" horiz-adv-x="0" 
d="M283 743c-54 1 -78 36 -123 36c-28 0 -45 -16 -62 -36l-58 39c32 77 79 99 121 98c53 0 77 -34 124 -35c35 0 50 23 60 37l59 -37c-27 -74 -74 -103 -121 -102z" />
    <glyph glyph-name="uni0327" unicode="&#x327;" horiz-adv-x="0" 
d="M174 -248c-78 0 -137 43 -135 113h91c1 -19 12 -38 38 -38c25 0 39 17 39 42c0 27 -18 40 -47 40h-22v113h81v-66c54 -6 87 -42 87 -94c0 -69 -56 -110 -132 -110z" />
    <glyph glyph-name="uni0337" unicode="&#x337;" horiz-adv-x="0" 
d="M87 -60l484 656h90l-483 -656h-91z" />
    <glyph glyph-name="uni0338" unicode="&#x338;" horiz-adv-x="0" 
d="M50 -81l597 810h110l-594 -810h-113z" />
    <glyph glyph-name="dieresis" unicode="&#xa8;" horiz-adv-x="411" 
d="M40 752v131h126v-131h-126zM244 752v131h127v-131h-127z" />
    <glyph glyph-name="dotaccent" unicode="&#x2d9;" horiz-adv-x="227" 
d="M40 752v138h147v-138h-147z" />
    <glyph glyph-name="grave" unicode="`" horiz-adv-x="283" 
d="M132 738l-92 145h146l57 -145h-111z" />
    <glyph glyph-name="acute" unicode="&#xb4;" horiz-adv-x="283" 
d="M40 738l56 145h147l-92 -145h-111z" />
    <glyph glyph-name="hungarumlaut" unicode="&#x2dd;" horiz-adv-x="500" 
d="M40 738l58 145h139l-91 -145h-106zM226 738l86 145h148l-117 -145h-117z" />
    <glyph glyph-name="circumflex" unicode="&#x2c6;" horiz-adv-x="447" 
d="M40 738l114 145h139l114 -145h-125l-59 77l-58 -77h-125z" />
    <glyph glyph-name="caron" unicode="&#x2c7;" horiz-adv-x="447" 
d="M154 738l-114 145h125l58 -77l59 77h125l-114 -145h-139z" />
    <glyph glyph-name="breve" unicode="&#x2d8;" horiz-adv-x="412" 
d="M206 727c-101 0 -166 60 -166 155h97c0 -48 27 -72 69 -72s70 25 70 72h96c0 -95 -65 -155 -166 -155z" />
    <glyph glyph-name="ring" unicode="&#x2da;" horiz-adv-x="317" 
d="M159 733c-72 0 -119 45 -119 111c0 67 47 112 119 112c71 0 118 -45 118 -112c0 -66 -47 -111 -118 -111zM159 800c26 0 44 18 44 44c0 27 -18 45 -44 45c-27 0 -44 -18 -44 -45c0 -26 17 -44 44 -44z" />
    <glyph glyph-name="tilde" unicode="&#x2dc;" horiz-adv-x="444" 
d="M283 743c-54 1 -78 36 -123 36c-28 0 -45 -16 -62 -36l-58 39c32 77 79 99 121 98c53 0 77 -34 124 -35c35 0 50 23 60 37l59 -37c-27 -74 -74 -103 -121 -102z" />
    <glyph glyph-name="macron" unicode="&#xaf;" horiz-adv-x="434" 
d="M40 755v109h354v-109h-354z" />
    <glyph glyph-name="cedilla" unicode="&#xb8;" horiz-adv-x="346" 
d="M174 -248c-78 0 -137 43 -135 113h91c1 -19 12 -38 38 -38c25 0 39 17 39 42c0 27 -18 40 -47 40h-22v113h81v-66c54 -6 87 -42 87 -94c0 -69 -56 -110 -132 -110z" />
    <glyph glyph-name="ogonek" unicode="&#x2db;" horiz-adv-x="292" 
d="M165 -194c-79 0 -127 39 -127 100c0 52 33 92 81 107l82 -13c-36 -11 -60 -37 -60 -67c0 -29 21 -44 51 -44c20 0 46 4 60 12v-80c-18 -9 -52 -15 -87 -15z" />
    <glyph glyph-name="M.BRACKET.300" horiz-adv-x="934" 
d="M79 0v729h236l150 -477h6l148 477h237v-729h-151v288l2 278h-7l-167 -566h-129l-168 566h-8l3 -280v-286h-152z" />
    <glyph glyph-name="a.ss01.BRACKET.300" horiz-adv-x="580" 
d="M207 -9c-106 0 -176 61 -176 152c0 119 94 170 216 170h125v39c0 48 -28 80 -91 80s-94 -28 -95 -71h-136c-1 112 89 185 241 185c143 0 228 -63 228 -200v-221c0 -23 6 -31 23 -31c8 0 18 2 26 8v-89c-20 -16 -56 -22 -83 -22c-70 0 -105 32 -105 90v3h-6
c-18 -57 -85 -93 -167 -93zM265 100c65 0 108 34 108 91v40h-98c-64 0 -97 -23 -97 -67c0 -41 32 -64 87 -64z" />
    <glyph glyph-name="cent.BRACKET.500" horiz-adv-x="585" 
d="M245 -85v81c-129 23 -210 126 -210 272s80 249 210 273v78h97v-75c120 -13 202 -93 207 -203h-143c-7 41 -31 68 -64 79v-303c38 12 61 41 66 81h143c-6 -114 -90 -191 -209 -205v-78h-97zM184 268c0 -73 23 -121 61 -143v286c-40 -23 -61 -75 -61 -143z" />
    <glyph glyph-name="dollar.BRACKET.500" horiz-adv-x="651" 
d="M272 -85v79c-156 16 -238 107 -238 235h157c1 -56 25 -97 81 -113v192c-136 27 -224 79 -224 208c0 123 84 204 224 219v80h104v-80c134 -17 216 -99 217 -214h-156c-2 48 -26 77 -61 91v-174c119 -20 238 -52 238 -227c0 -118 -80 -203 -238 -218v-78h-104zM209 536
c0 -42 18 -62 63 -76v156c-40 -13 -63 -41 -63 -80zM453 197c0 51 -20 74 -77 90v-174c48 10 77 38 77 84z" />
    <glyph glyph-name="e.BRACKET.300" horiz-adv-x="582" 
d="M298 -9c-168 0 -267 109 -267 273c0 173 103 282 262 282c186 0 274 -132 256 -311h-373c-1 -85 48 -133 122 -133c57 0 98 27 109 68h139c-14 -108 -113 -179 -248 -179zM293 435c-68 0 -111 -42 -117 -109h229c-3 72 -48 109 -112 109z" />
    <glyph glyph-name="f.BRACKET.200" horiz-adv-x="364" 
d="M98 0v418h-88v118h88v57c0 88 57 136 156 136h109v-98h-66c-41 0 -52 -18 -52 -45v-50h109v-118h-109v-418h-147z" />
    <glyph glyph-name="s.BRACKET.300" horiz-adv-x="534" 
d="M266 -10c-146 0 -236 72 -235 180h144c1 -53 39 -76 95 -76c54 0 82 21 82 56c0 42 -28 51 -103 62c-139 21 -205 59 -205 163c0 103 91 171 227 171c131 0 217 -67 220 -170h-145c0 46 -31 67 -79 67c-47 0 -76 -20 -76 -55c0 -39 33 -51 117 -62
c132 -17 194 -58 194 -163c0 -111 -94 -173 -236 -173z" />
    <glyph glyph-name="w.BRACKET.300" horiz-adv-x="797" 
d="M133 0l-128 536h152l83 -389h6l76 389h160l76 -391h4l84 391h146l-129 -536h-192l-73 349h-5l-71 -349h-189z" />
    </font>
</defs>
</svg>
